<?xml version="1.0" standalone="no"?>
<!DOCTYPE svg PUBLIC "-//W3C//DTD SVG 1.1//EN" "http://www.w3.org/Graphics/SVG/1.1/DTD/svg11.dtd" >
<svg xmlns="http://www.w3.org/2000/svg">
<metadata>Generated by IcoMoon</metadata>
<defs>
<font id="ambaricon-font" horiz-adv-x="1024">
<font-face units-per-em="1024" ascent="960" descent="-64" />
<missing-glyph horiz-adv-x="1024" />
<glyph unicode="&#x20;" horiz-adv-x="512" d="" />
<glyph unicode="&#xe900;" glyph-name="acciones" d="M491.156 127.824l20.808 259.378c0.65 8.092-2.312 16.112-8.020 22.181-5.78 5.997-13.872 9.393-22.398 9.393h-187.778l238.714 354.748-20.375-235.102c-0.723-8.164 2.168-16.256 7.948-22.325s13.944-9.465 22.398-9.465h189.44l-240.737-378.807zM812.741 550.198c-5.347 9.248-15.534 14.956-26.588 14.956h-210.537l27.672 319.923c1.228 13.439-7.297 25.793-20.519 30.128-13.15 4.335-27.816-0.506-35.403-11.777l-335.168-498.092c-6.069-8.959-6.503-20.519-1.228-29.912 5.347-9.393 15.678-15.317 26.805-15.317h210.898l-27.961-349.329c-1.084-13.511 7.659-25.938 21.025-30.128 3.107-0.939 6.214-1.445 9.32-1.445 10.404 0 20.375 5.13 26.082 14.017l335.168 527.425c5.708 9.031 5.925 20.375 0.434 29.55v0z" />
<glyph unicode="&#xe901;" glyph-name="aire" d="M895.973 253.178l-98.332 58.45 83.015 50.864c13.294 6.575 17.485 24.999 9.826 38.582-7.731 13.8-24.348 16.762-37.064 9.176l-110.615-66.615-175.857 105.124 175.857 104.112 110.615-66.47c3.396-2.601 7.948-4.118 12.861-4.118 9.393 0 17.774 4.552 24.204 13.222 7.442 13.728 3.468 31.935-9.826 38.582l-83.015 50.792 98.332 58.378c12.788 7.586 17.196 24.637 9.826 38.582-7.008 13.439-24.348 18.135-37.57 10.26l-98.766-58.956-1.517 101.656c-0.217 15.678-11.849 28.394-27.238 28.394-15.317 0-27.238-13.655-27.166-28.394l0.939-134.168-174.845-104.112v211.187l110.181 64.519c12.861 7.514 18.424 24.926 10.838 38.582-7.731 13.944-23.554 17.99-37.064 10.187l-84.027-48.769v115.311c0 15.751-12.283 28.467-27.6 28.467s-27.166-12.716-27.166-28.467v-116.323l-86.772 49.78c-13.511 7.659-28.972 3.324-36.559-10.187-7.731-13.872-2.962-30.851 10.332-38.582l113.144-65.531v-209.164l-178.747 106.063 1.012 131.062c1.517 14.667-11.343 28.394-26.733 28.394h-0.939c-14.306 0-27.022-12.644-27.238-28.394l-0.939-98.621-96.309 56.861c-13.439 8.020-30.056 3.251-37.064-10.043-7.37-14.089-3.54-30.706 9.898-38.726l97.249-57.872-84.966-52.309c-13.294-6.647-17.485-25.071-9.393-38.582 5.202-8.742 12.788-13.222 23.192-13.222 5.419 0 9.971 1.373 14.306 4.118l111.193 67.626 178.313-105.124-178.313-106.208-111.121 67.626c-13.294 8.020-30.562 4.263-37.498-9.176-7.37-14.017-3.396-30.851 9.393-38.582l84.966-51.803-97.249-58.378c-13.366-8.020-17.774-24.926-9.898-38.654 5.563-9.537 12.861-14.161 23.192-14.161 2.457 0 7.37 1.445 13.8 4.118l96.309 56.789 0.939-98.621c0.145-15.678 12.861-27.816 27.238-27.816h0.939c15.317 0 26.805 13.077 26.733 28.9l-1.012 130.989 178.819 105.124v-208.080l-113.144-65.531c-13.511-7.803-18.207-24.854-10.332-38.582 5.491-9.682 12.861-14.378 23.192-14.378 4.913 0 9.465 0.939 13.294 3.179l86.989 50.647v-118.273c0-15.751 11.849-27.961 27.166-27.961s27.6 12.283 27.6 27.961v116.323l84.027-48.697c3.829-2.312 8.381-3.179 12.861-3.179 10.838 0 18.857 4.552 24.204 14.378 7.514 13.655 2.601 30.706-10.838 38.582l-110.181 63.508v211.187l174.845-104.112-0.939-133.012c-0.072-15.823 11.849-28.9 27.166-28.9s26.949 12.138 27.238 27.816l1.517 102.162 98.766-59.462c3.829-2.312 8.887-3.107 14.378-3.107 10.332 0 17.99 4.48 23.192 13.222 8.092 13.511 2.89 30.995-9.826 38.582h-0.217z" />
<glyph unicode="&#xe902;" glyph-name="alerta" d="M509.941 402.085c25.793 0 46.963 21.097 46.963 46.963v187.922c0 25.793-21.097 46.963-46.963 46.963s-47.035-21.097-46.963-46.963v-187.922c0-25.793 21.169-46.963 46.963-46.963zM462.906 214.163h93.997v93.925h-93.997zM512.036 920.479c-255.259 0-462.978-211.982-462.978-472.515s207.719-472.515 462.978-472.515 462.978 211.982 462.978 472.515-207.719 472.515-462.978 472.515zM512.036 42.641c-218.918 0-397.014 181.853-397.014 405.323s178.096 405.323 397.014 405.323 397.014-181.853 397.014-405.323-178.096-405.323-397.014-405.323z" />
<glyph unicode="&#xe903;" glyph-name="arrow_left" d="M711.374-20.433c-18.568 0-35.981 7.225-49.13 20.375l-398.82 398.82c-13.15 13.15-20.375 30.706-20.375 49.491 0 18.713 7.225 36.053 20.23 48.769l398.965 398.965c13.15 13.15 30.634 20.375 49.202 20.447 18.568 0 35.981-7.225 49.13-20.375s20.375-30.634 20.375-49.202c0-18.568-7.225-35.981-20.375-49.13l-349.257-349.329 349.257-350.124c13.15-13.222 20.447-30.706 20.447-49.275 0-18.496-7.225-35.981-20.375-49.058-13.222-13.15-30.706-20.375-49.275-20.375z" />
<glyph unicode="&#xe904;" glyph-name="arrow_less" d="M43.567 248.626c0 18.568 7.225 35.981 20.375 49.13l398.82 398.82c13.15 13.15 30.706 20.375 49.491 20.375 18.713 0 36.053-7.225 48.769-20.23l398.965-398.965c13.15-13.15 20.375-30.634 20.447-49.202 0-18.568-7.225-35.981-20.375-49.13s-30.634-20.375-49.202-20.375c-18.568 0-35.981 7.225-49.13 20.375l-349.329 349.257-350.124-349.257c-13.222-13.15-30.706-20.447-49.275-20.447-18.496 0-35.981 7.225-49.058 20.375-13.15 13.222-20.375 30.706-20.375 49.275z" />
<glyph unicode="&#xe905;" glyph-name="arrow_more" d="M980.433 647.374c0-18.568-7.225-35.981-20.375-49.13l-398.82-398.82c-13.15-13.15-30.706-20.375-49.491-20.375-18.713 0-36.053 7.225-48.769 20.23l-398.965 398.965c-13.15 13.15-20.375 30.634-20.447 49.202 0 18.568 7.225 35.981 20.375 49.13s30.634 20.375 49.202 20.375c18.568 0 35.981-7.225 49.13-20.375l349.329-349.257 350.124 349.257c13.222 13.15 30.706 20.447 49.275 20.447 18.496 0 35.981-7.225 49.058-20.375 13.15-13.222 20.375-30.706 20.375-49.275z" />
<glyph unicode="&#xe906;" glyph-name="arrow_right" d="M312.626 916.433c18.568 0 35.981-7.225 49.13-20.375l398.82-398.82c13.15-13.15 20.375-30.706 20.375-49.491 0-18.713-7.225-36.053-20.23-48.769l-398.965-398.965c-13.15-13.15-30.634-20.375-49.202-20.447-18.568 0-35.981 7.225-49.13 20.375s-20.375 30.634-20.375 49.202c0 18.568 7.225 35.981 20.375 49.13l349.257 349.329-349.257 350.124c-13.15 13.222-20.447 30.706-20.447 49.275 0 18.496 7.225 35.981 20.375 49.058 13.222 13.15 30.706 20.375 49.275 20.375z" />
<glyph unicode="&#xe907;" glyph-name="arrow-drop-down" d="M980.216 682.054l-468.18-468.18-468.18 468.18h936.361z" />
<glyph unicode="&#xe908;" glyph-name="arrow-drop-up" d="M43.856 213.874l468.18 468.18 468.18-468.18h-936.361z" />
<glyph unicode="&#xe909;" glyph-name="atras" d="M711.374-20.433c-18.568 0-35.981 7.225-49.13 20.375l-398.82 398.82c-13.15 13.15-20.375 30.706-20.375 49.491 0 18.713 7.225 36.053 20.23 48.769l398.965 398.965c13.15 13.15 30.634 20.375 49.202 20.447 18.568 0 35.981-7.225 49.13-20.375s20.375-30.634 20.375-49.202c0-18.568-7.225-35.981-20.375-49.13l-349.257-349.329 349.257-350.124c13.15-13.222 20.447-30.706 20.447-49.275 0-18.496-7.225-35.981-20.375-49.058-13.222-13.15-30.706-20.375-49.275-20.375z" />
<glyph unicode="&#xe90a;" glyph-name="borrar" d="M157.65 233.526c-2.818 2.962-4.335 6.575-4.769 10.332l-2.095 2.168 2.168 2.095c0.434 3.902 2.095 7.731 5.058 10.765l198.254 198.977c6.864 6.936 18.135 6.864 24.999-0.145l187.561-192.257c6.864-7.008 6.864-18.424-0.072-25.432l-111.482-113.649c-0.723-0.723-1.59-2.312-2.384-2.312h-193.341c-0.939 0-1.806 1.734-2.601 2.529l-101.295 106.93zM932.242 124.067h-346.873l78.102 79.981c0.795 0.795 1.517 1.951 2.24 2.818l303.667 304.823c6.792 6.792 10.549 15.967 10.549 25.649s-3.757 18.713-10.549 25.577l-295.936 296.948c-6.864 6.792-15.823 10.549-25.504 10.549s-18.713-3.757-25.432-10.549l-349.474-350.557c-1.59-1.59-2.962-3.324-4.191-5.13l-205.19-205.985c-27.672-27.744-28.25-73.406-1.228-101.728l130.7-138.359c12.788-13.511 32.151-24.348 51.587-29.478 4.48-1.59 9.32-2.457 14.306-2.673 2.818-0.289 5.636-0.434 8.453-0.434h664.845c27.094 0 49.13 22.036 49.13 49.275s-22.036 49.347-49.202 49.275v0z" />
<glyph unicode="&#xe90b;" glyph-name="caldera" d="M473.093 165.249h78.030c14.306 0 25.866 11.56 25.866 25.721s-11.632 25.721-25.866 25.721h-78.030c-14.306 0-25.866-11.56-25.866-25.721s11.56-25.721 25.866-25.721zM692.011 915.711h-359.95c-82.004-0.072-148.763-66.398-148.763-147.824v-639.846c0-81.426 66.687-147.751 148.691-147.751h360.022c82.004 0 148.691 66.253 148.691 147.751v639.846c0 81.498-66.687 147.824-148.691 147.824zM777.627 269.145v-125.787c0-55.344-45.373-100.428-101.15-100.428h-328.81c-28.25 0-53.754 8.092-71.817 22.687-19.146 15.534-29.261 37.498-29.261 63.58v139.876l531.038 0.072zM246.517 328.896v423.674c0 55.344 45.373 100.355 101.15 100.355l328.81 0.072c55.777 0 101.15-45.012 101.15-100.355v-423.747h-531.11z" />
<glyph unicode="&#xe90c;" glyph-name="calendario" d="M889.037 130.136v432.344c0 29.767-23.337 53.393-52.598 53.393h-648.661c-29.261 0-52.743-23.698-52.743-53.393v-432.417c0-43.784 34.68-79.475 77.524-79.475h599.025c42.917 0.072 77.452 35.764 77.452 79.547zM862.088 856.755c53.826-17.268 93.419-69.216 93.347-130.556v-608.634c0-75.646-59.679-136.336-133.807-136.336h-619.111c-74.129 0-133.952 60.69-133.952 136.336v608.634c0 60.546 38.004 111.915 91.83 129.833v-45.879c0-47.035 37.498-86.122 83.666-86.122h4.191c46.168 0 83.16 39.087 83.16 86.122v52.887h93.419v-52.887c0-47.035 37.931-86.122 84.171-86.122h4.191c46.168 0 84.46 39.087 84.46 86.122v52.887h91.758v-52.887c0-47.035 38.365-86.122 84.46-86.122h4.263c46.168 0 84.027 39.087 84.027 86.122l-0.072 46.601zM243.988 766.225c-13.222 0-25.288 5.636-33.452 15.173-6.43 7.731-10.621 17.557-10.621 28.756v60.546c0 12.21 4.985 23.192 12.716 31.284 0.145 0 0.361 0 0.434 0.145 0 0 0.145-0.145 0.145 0 7.875 7.948 18.713 12.644 30.779 12.644h4.335c11.994 0 22.759-4.696 30.706-12.644 0.072-0.145 0.072 0.145 0.145 0.145 0-0.145 0-0.145 0.145-0.289 7.803-8.020 12.427-19.074 12.427-31.284v-60.546c0-11.199-3.757-21.025-10.476-28.756-7.948-9.537-19.724-15.173-32.946-15.173h-4.335zM484.003 773.234c-11.632 8.020-19.508 21.603-19.508 36.92v60.546c0 13.005 5.78 24.565 14.45 32.657 0.072 0.145 0.506 0.145 0.578 0.289 0 0 0-0.289 0.072-0.289 7.731 7.297 18.063 11.271 29.406 11.271h4.263c9.826 0 18.785-2.89 26.082-8.381l-0.072 0.289c0.072 0 0-0.145 0.072-0.145 10.549-8.164 17.123-21.097 17.123-35.619v-60.546c0-16.834-8.742-31.284-22.253-38.871-0.145-0.145 0-0.145-0.145-0.289 0-0.145 0 0.145-0.145 0.145-6.141-3.54-13.222-5.058-20.736-5.058h-4.263c-9.031 0-17.268 2.529-24.204 7.153-0.145 0-0.289-0.145-0.506-0.072 0-0.072-0.217 0-0.217 0zM773.798 766.225c-24.132 0-43.206 19.291-43.206 43.928v60.546c0 22.398 15.751 40.605 36.848 43.856 2.168 0.289 4.118 0.145 6.358 0.145h4.263c4.552 0 8.887-0.434 13.077-1.662 0.506-0.217 1.012 0 1.373-0.217 0.289-0.145 0.506-0.145 0.65-0.145 0.361-0.145 0.795-0.289 1.228-0.578 0.217-0.072 0.578-0.145 0.795-0.289 0.145-0.072 0.506-0.145 0.578-0.145 1.084-0.578 2.24-1.084 3.396-1.662 0.072 0 0.217-0.145 0.361-0.145 13.511-7.659 23.048-22.253 23.048-39.16v-60.546c0-11.199-4.335-21.025-10.982-28.756-8.092-9.537-20.158-15.173-33.524-15.173h-4.263zM324.403 486.907c0-25.071-19.941-45.373-44.506-45.373s-44.506 20.302-44.506 45.373 19.941 45.373 44.506 45.373c24.565-0.072 44.506-20.302 44.506-45.373zM479.090 486.907c0-25.071-19.941-45.373-44.506-45.373s-44.506 20.302-44.506 45.373 19.941 45.373 44.506 45.373c24.565-0.072 44.506-20.302 44.506-45.373zM633.85 486.907c0-25.071-19.941-45.373-44.506-45.373s-44.506 20.302-44.506 45.373 19.941 45.373 44.506 45.373 44.506-20.302 44.506-45.373zM788.537 486.907c0-25.071-19.941-45.373-44.506-45.373s-44.506 20.302-44.506 45.373 19.941 45.373 44.506 45.373c24.565-0.072 44.506-20.302 44.506-45.373zM324.403 330.991c0-25.071-19.941-45.373-44.506-45.373s-44.506 20.302-44.506 45.373 19.941 45.373 44.506 45.373c24.565-0.072 44.506-20.302 44.506-45.373zM479.090 330.991c0-25.071-19.941-45.373-44.506-45.373s-44.506 20.302-44.506 45.373 19.941 45.373 44.506 45.373c24.565-0.072 44.506-20.302 44.506-45.373zM633.85 330.991c0-25.071-19.941-45.373-44.506-45.373s-44.506 20.302-44.506 45.373 19.941 45.373 44.506 45.373 44.506-20.302 44.506-45.373zM788.537 330.991c0-25.071-19.941-45.373-44.506-45.373s-44.506 20.302-44.506 45.373 19.941 45.373 44.506 45.373c24.565-0.072 44.506-20.302 44.506-45.373zM324.403 175.075c0-25.071-19.941-45.373-44.506-45.373s-44.506 20.302-44.506 45.373c0 24.999 19.941 45.373 44.506 45.373s44.506-20.375 44.506-45.373zM479.090 175.075c0-25.071-19.941-45.373-44.506-45.373s-44.506 20.302-44.506 45.373c0 24.999 19.941 45.373 44.506 45.373s44.506-20.375 44.506-45.373z" />
<glyph unicode="&#xe90d;" glyph-name="camara" d="M919.382 173.197h-0.506v398.17c0 34.319-28.828 62.569-63.941 62.569l-115.528 1.012c-9.826 0-19.58 5.563-25.288 13.655l-93.853 137.203h-221.23l-97.465-138.214c-5.708-8.092-14.956-13.583-25.288-13.583h-107.725c-35.114 0-63.941-28.25-63.941-62.569v-398.242c0-34.319 28.9-63.58 63.941-63.58h686.881c35.041 0 63.941 29.261 63.941 63.58v0zM855.441 694.553c69.071 0 125.86-55.488 125.86-123.114v-398.242c0-67.626-56.716-124.126-125.86-124.126h-686.881c-69.071 0-125.86 56.572-125.86 124.126v398.17c0 67.626 56.789 123.114 125.86 123.114l91.252 0.506 97.465 138.287c5.708 8.092 14.956 13.583 25.288 13.583h254.248c10.26 0 20.086-5.563 25.793-14.089l94.359-137.781c0 0 98.477-0.434 98.477-0.434zM514.565 253.467c86.628 0 157.288 69.143 157.288 153.893s-70.661 153.893-157.288 153.893-157.288-69.071-157.288-153.893 70.661-153.893 157.288-153.893zM514.565 621.87c120.73 0 219.207-96.382 219.207-214.438s-98.477-214.438-219.207-214.438c-120.658 0-219.134 96.382-219.134 214.438s97.971 214.438 219.134 214.438zM819.894 533.002c0-6.43-5.274-11.56-11.849-11.56s-11.849 5.202-11.849 11.56c0 6.43 5.347 11.632 11.849 11.632s11.849-5.202 11.849-11.632zM808.045 514.362c10.838 0 19.074 8.598 19.074 18.641s-8.742 18.713-19.074 18.713-19.074-8.598-19.074-18.713 8.237-18.641 19.074-18.641zM808.045 574.907c23.698 0 42.772-18.713 42.772-41.905 0-23.265-19.074-41.905-42.772-41.905s-42.772 18.641-42.772 41.905c0 23.265 19.002 41.905 42.772 41.905z" />
<glyph unicode="&#xe90e;" glyph-name="cerrar" d="M850.672 42.208c-17.99 0-34.825 7.008-47.468 19.652l-291.168 291.168-291.168-291.168c-12.644-12.644-29.55-19.652-47.468-19.652-17.99 0-34.825 7.008-47.468 19.652-26.227 26.227-26.227 68.782 0 95.009l291.168 291.168-291.168 291.168c-26.227 26.227-26.227 68.782 0 95.009 12.644 12.644 29.55 19.652 47.468 19.652 17.99 0 34.825-7.008 47.468-19.652l291.168-291.168 291.168 291.095c12.644 12.644 29.55 19.652 47.541 19.652s34.825-7.008 47.468-19.652c26.227-26.227 26.227-68.782 0-95.009l-291.168-291.168 291.168-291.095c12.716-12.716 19.652-29.55 19.652-47.541s-7.008-34.825-19.652-47.396c-12.716-12.716-29.623-19.724-47.541-19.724z" />
<glyph unicode="&#xe90f;" glyph-name="cif" d="M288.35 426.217c-75.212 0-136.119-59.895-136.119-133.735h272.31c-0.072 73.984-60.979 133.735-136.191 133.735zM848.649 342.479h-339.069c-12.788 0-23.12-11.199-23.12-24.999 0-13.728 10.404-24.926 23.12-24.926h339.142c12.788 0 23.12 11.127 23.12 24.926-0.072 13.8-10.404 24.999-23.192 24.999zM288.35 463.136c41.472 0 75.14 32.946 75.14 73.767 0 40.677-33.596 73.767-75.14 73.767s-75.14-33.091-75.14-73.767c0-40.749 33.669-73.767 75.14-73.767zM846.337 579.387h-161.118c-14.089 0-25.432-11.127-25.432-24.999 0-13.8 11.416-24.999 25.432-24.999h161.118c14.089 0 25.432 11.271 25.432 24.999 0 13.872-11.343 24.999-25.432 24.999zM848.649 460.897h-338.636c-12.788 0-23.12-11.199-23.12-24.999s10.404-24.999 23.12-24.999h338.636c12.788 0 23.12 11.199 23.12 24.999 0 13.872-10.332 24.999-23.12 24.999zM912.663 724.826h-801.253c-36.92 0-67.12-30.201-67.12-67.12v-419.339c0-36.92 30.201-67.12 67.12-67.12h801.253c36.92 0 67.12 30.201 67.12 67.12v419.267c-0.072 36.992-30.273 67.193-67.12 67.193zM917.576 238.366c0-2.601-2.384-4.985-4.985-4.985h-801.253c-2.601 0-4.985 2.384-4.985 4.985v419.267c0 2.601 2.384 4.985 4.985 4.985h801.253c2.601 0 4.985-2.384 4.985-4.985v-419.267z" />
<glyph unicode="&#xe910;" glyph-name="clip" d="M246.084 33.754c49.13-35.403 97.465-53.176 143.994-53.176 11.632 0 23.048 1.084 34.391 3.324 81.137 15.823 123.692 83.16 123.981 83.81l239.581 319.417c10.043 13.294 7.081 31.79-6.43 41.616-13.511 9.682-32.585 6.864-42.483-6.43l-241.171-321.657c-0.289-0.506-30.995-47.902-85.327-58.523-39.593-7.803-83.521 5.563-130.628 39.449-138.070 99.272-66.109 204.251-57.439 216.028l396.581 529.015c0.217 0.289 17.051 22.976 47.685 28.178 28.105 4.696 60.329-5.78 96.743-32.007 14.161-9.537 52.309-42.483 58.523-78.68 3.035-17.557-1.806-34.391-14.522-51.442l-354.314-472.371c-0.145-0.145-15.895-21.097-39.304-24.926-14.667-2.312-29.912 2.384-46.746 14.45-49.78 35.836-23.987 79.331-18.857 86.772l197.459 263.279c9.971 13.222 7.081 31.862-6.503 41.544-13.511 9.682-32.513 6.864-42.483-6.43l-197.821-263.568c-27.672-38.943-41.761-116.034 32.296-169.282 30.273-21.82 61.485-30.128 92.697-25.215 48.191 7.803 76.224 45.229 78.825 48.913l353.881 471.721c22.759 30.345 31.284 62.93 25.432 96.887-11.921 68.565-81.065 115.528-83.16 116.973-49.419 35.619-97.249 49.636-142.333 42.050-55.922-9.465-84.533-49.058-86.917-52.526l-395.714-527.859c-2.023-2.673-48.119-64.375-35.908-145.367 8.887-57.872 44.578-109.676 106.135-153.893l-0.145-0.072z" />
<glyph unicode="&#xe911;" glyph-name="cuadre-de-caja" d="M517.094 4.349c-72.178 0-143.705 17.918-206.924 51.587-62.93 33.596-116.828 82.582-155.988 141.61l-3.685 5.563-70.877-38.293c-3.468-1.879-7.442-2.818-11.488-2.818-5.419 0-10.621 1.806-14.811 5.13-7.442 5.852-10.476 15.317-7.875 24.276l47.324 160.034c1.734 5.852 5.852 10.838 11.271 13.728 3.468 1.879 7.442 2.89 11.488 2.89 2.24 0 4.48-0.289 6.575-0.867l163.213-46.385c9.176-2.601 15.823-10.26 16.834-19.58 1.012-9.248-3.685-18.207-12.066-22.687l-68.132-36.775 4.696-6.719c65.459-94.431 173.978-150.786 290.445-150.786 193.702 0 351.28 154.76 351.28 344.922 0 21.531 17.485 39.16 39.449 39.954h1.445c22.47 0 40.821-17.846 40.821-39.954 0-234.235-194.208-424.83-432.995-424.83zM510.158 194.366c-14.233 0-25.793 11.343-25.793 25.215v36.703l-10.043 1.734c-39.882 6.719-78.247 25.432-105.413 51.225-4.913 4.696-7.731 11.199-7.803 17.774-0.072 6.719 2.673 13.222 7.514 17.99l2.529 2.457c4.913 4.769 11.416 7.442 18.279 7.442 6.936 0 13.439-2.601 18.352-7.442 13.511-13.222 32.007-23.915 52.815-30.706l-0.145-0.217 23.915-6.358v131.929l-8.237 2.746c-32.802 10.91-57.439 25.721-73.189 44s-23.337 40.027-23.337 66.615c0 23.915 8.526 45.373 24.71 62.063 16.473 16.979 40.821 29.045 70.372 34.969l9.682 1.951v30.851c0 13.872 11.56 25.215 25.793 25.215h3.757c14.233 0 25.793-11.343 25.793-25.215v-29.406l10.26-1.517c27.455-4.118 53.754-13.005 74.129-25.143 5.852-3.468 10.115-9.176 11.705-15.678 1.59-6.43 0.434-13.439-3.179-19.074l-1.662-2.673c-4.769-7.442-12.933-11.921-21.892-11.921-4.696 0-9.248 1.228-13.294 3.685-11.199 6.575-25.504 11.849-41.327 15.245l-14.667 3.107v-119.718l8.453-2.601c42.555-13.366 61.34-27.311 71.744-36.631 22.398-20.158 33.235-45.951 33.018-79.186 0-26.371-9.248-49.78-26.949-67.771-17.846-18.424-44.289-31.284-76.441-37.281l-9.826-1.806v-37.426c0-13.872-11.56-25.215-25.793-25.215l-3.829 0.072zM539.636 310.978l15.823 5.13c19.146 6.141 41.977 19.58 41.977 48.191 0.217 26.444-11.271 41.761-40.966 54.549l-16.907 7.225v-115.094h0.072zM468.108 594.776c-15.173-5.491-33.307-16.69-33.307-39.16 0-22.109 9.176-35.908 31.718-47.757l17.774-9.248v102.017l-16.184-5.852zM114.805 426.939c-22.47 0-40.821 17.846-40.821 39.954 0 234.235 194.208 424.758 432.995 424.758 72.178 0 143.705-17.846 206.924-51.587 62.93-33.596 116.828-82.582 155.988-141.61l3.685-5.563 70.877 38.293c3.468 1.879 7.442 2.818 11.488 2.818 5.347 0 10.549-1.806 14.739-5.058l1.156-0.939c6.575-5.925 9.176-14.884 6.719-23.265l-47.252-160.106c-1.734-5.852-5.852-10.91-11.271-13.8-3.468-1.879-7.442-2.89-11.416-2.89-2.168 0-4.407 0.289-6.647 0.939l-163.141 46.312c-9.176 2.601-15.751 10.26-16.834 19.58-1.012 9.176 3.685 18.135 12.066 22.687l68.060 36.775-4.696 6.719c-65.459 94.431-174.050 150.786-290.445 150.786-193.702 0-351.28-154.76-351.28-344.922 0-21.892-18.352-39.882-40.894-39.882z" />
<glyph unicode="&#xe912;" glyph-name="defectos" d="M972.413 130.425l-406.912 696.418c-11.199 19.146-31.212 30.562-53.465 30.562-22.325 0-42.266-11.416-53.393-30.562l-406.985-696.346c-11.271-19.219-11.199-42.122 0-61.34 11.199-19.146 31.212-30.562 53.465-30.562h813.752c22.325 0 42.339 11.416 53.465 30.562 11.271 19.146 11.343 42.050 0.072 61.268zM129.039 113.446l383.070 655.597 383.070-655.597h-766.14zM512.036 349.343c21.025 0 38.293 17.196 38.293 38.293v153.098c0 21.025-17.196 38.293-38.293 38.293s-38.293-17.196-38.293-38.293v-153.098c0-21.025 17.268-38.293 38.293-38.293zM473.671 196.245h76.657v76.513h-76.657z" />
<glyph unicode="&#xe913;" glyph-name="direccion" d="M837.017 389.803v58.234h59.101v-58.234h-59.101zM837.017 273.48v58.161h59.101v-58.161h-59.101zM837.017 157.157v58.161h59.101v-58.161h-59.101zM837.017 40.69v58.161h59.101v-58.161h-59.101zM777.916 40.69h-177.302v174.484h-59.101v-174.484h-177.302v814.475h413.632c0.072 0 0.072-814.475 0.072-814.475zM127.81 40.69v639.919h177.302v-639.919c0.072 0-177.302 0-177.302 0zM896.117 506.125h-59.101v349.112c0 32.151-26.444 58.161-59.101 58.161h-413.632c-32.729 0-59.101-26.010-59.101-58.161v-116.323h-177.302c-32.657 0-59.101-26.010-59.101-58.234v-639.919c0-32.151 26.444-58.161 59.101-58.161h768.307c32.585 0 59.028 26.010 59.028 58.161v407.274c0 32.151-26.444 58.089-59.101 58.089v0zM541.514 273.48h59.101v58.161h-59.101v-58.161zM186.983 98.924h59.028v58.234h-59.028c0-0.072 0-58.234 0-58.234zM186.983 215.246h59.028v58.234h-59.028c0 0 0-58.234 0-58.234zM186.983 331.641h59.028v58.161h-59.028v-58.161zM186.983 447.964h59.028v58.161h-59.028v-58.161zM659.715 506.125h59.028v58.234h-59.028v-58.234zM541.514 506.125h59.101v58.234h-59.101v-58.234zM423.313 506.125h59.101v58.234h-59.101v-58.234zM659.715 157.157h59.028v58.161h-59.028c0-0.072 0-58.161 0-58.161zM423.313 157.157h59.101v58.161h-59.101c0-0.072 0-58.161 0-58.161zM659.715 273.48h59.028v58.161h-59.028v-58.161zM423.313 273.48h59.101v58.161h-59.101v-58.161zM659.715 389.803h59.028v58.234h-59.028v-58.234zM541.514 389.803h59.101v58.234h-59.101v-58.234zM423.313 389.803h59.101v58.234h-59.101v-58.234zM659.715 738.843h59.028v58.161h-59.028v-58.161zM541.514 738.843h59.101v58.161h-59.101v-58.161zM423.313 738.843h59.101v58.161h-59.101v-58.161zM659.715 622.52h59.028v58.161h-59.028v-58.161zM541.514 622.52h59.101v58.161h-59.101v-58.161zM423.313 622.52h59.101v58.161h-59.101v-58.161zM186.983 564.359h59.028v58.161h-59.028c0 0 0-58.161 0-58.161z" />
<glyph unicode="&#xe914;" glyph-name="dto" d="M425.047 527.583c0-21.603-17.918-39.16-39.954-39.16s-39.954 17.485-39.954 39.16c0 21.603 17.918 39.16 39.954 39.16 22.036-0.072 39.954-17.557 39.954-39.16zM678.572 368.85c0-21.603-17.846-39.16-39.954-39.16s-39.954 17.557-39.954 39.16 17.918 39.16 39.954 39.16c22.109 0 39.954-17.557 39.954-39.16zM638.69 274.491c53.248 0 96.309 42.194 96.309 94.359s-43.061 94.286-96.309 94.286-96.309-42.194-96.309-94.359 43.133-94.286 96.309-94.286zM403.517 284.245l252.586 298.104c8.164 9.754 6.792 24.348-3.179 32.44-9.971 8.020-24.782 6.647-33.091-3.035l-252.586-298.248c-8.164-9.754-6.792-24.348 3.179-32.44 10.043-7.948 24.926-6.575 33.091 3.179zM288.639 527.583c0-52.020 43.061-94.359 96.309-94.359s96.237 42.194 96.237 94.359-43.061 94.286-96.309 94.286-96.237-42.122-96.237-94.286zM967.789 396.377c22.109-29.623 12.716-71.455-20.013-89.157l-21.314-11.705c-23.265-12.716-35.836-38.582-30.851-64.23l4.48-23.554c6.864-36.053-20.158-69.721-57.511-71.889l-24.421-1.373c-26.588-1.373-49.275-19.363-56.355-44.651l-6.503-23.192c-9.971-35.258-49.13-54.332-83.738-40.243l-22.687 9.176c-24.637 9.971-53.104 3.468-70.588-16.329l-16.112-18.063c-24.421-27.816-68.060-27.961-93.203-0.795l-16.256 17.846c-17.846 19.58-46.385 25.649-70.805 15.389l-22.542-9.32c-34.463-14.595-73.984 3.613-84.388 38.871l-6.792 22.976c-7.442 25.071-30.49 42.772-57.15 43.928l-24.421 0.939c-37.353 1.517-64.953 34.897-58.739 70.877l4.118 23.554c4.48 25.866-8.381 51.514-31.935 63.797l-21.386 11.488c-33.163 17.485-43.061 59.101-21.531 88.94l14.089 19.58c15.462 21.458 15.1 49.997-0.578 71.094l-14.522 19.363c-22.036 29.478-12.716 71.239 19.941 89.157l21.314 11.705c23.265 12.716 35.836 38.509 30.923 64.23l-4.552 23.554c-6.792 36.053 20.158 69.721 57.583 71.889l24.421 1.373c26.588 1.373 49.275 19.363 56.427 44.651l6.43 23.192c9.971 35.258 49.13 54.332 83.738 40.243l22.687-9.176c24.637-9.971 53.032-3.468 70.588 16.329l16.040 17.99c24.637 27.744 68.276 27.961 93.203 0.795l16.256-17.846c17.846-19.58 46.385-25.649 70.805-15.389l22.542 9.32c34.463 14.595 73.984-3.613 84.316-38.871l6.864-22.976c7.37-25.143 30.49-42.772 57.15-43.928l24.421-0.939c37.353-1.517 64.953-34.969 58.667-70.95l-4.046-23.554c-4.48-25.866 8.381-51.514 31.935-63.797l21.531-11.343c33.091-17.412 43.061-59.028 21.531-88.94l-14.089-19.58c-15.534-21.458-15.1-49.997 0.578-71.094l14.45-19.363z" />
<glyph unicode="&#xe915;" glyph-name="editar" d="M98.043-18.049c-28.611 0-51.948 23.409-52.020 52.020v770.836c0.072 28.611 23.409 51.876 52.020 51.876h400.121c20.447 0 37.064-16.618 37.064-37.064s-16.618-37.064-37.064-37.064h-377.868v-726.185h726.185v377.94c0 20.447 16.618 37.064 37.064 37.064s37.064-16.618 37.064-37.064v-400.265c-0.072-28.611-23.337-51.948-51.803-52.092v0h-770.764zM312.77 248.915v167.403l491.662 491.589c5.202 5.274 12.21 8.237 19.58 8.237h0.506c7.297 0 14.522-2.962 19.724-8.237l127.594-127.738c10.982-10.982 10.982-28.828 0.072-39.81l-491.589-491.445h-167.548zM387.116 392.909v-69.794h69.649l437.257 437.33-69.721 69.577-437.185-437.113z" />
<glyph unicode="&#xe916;" glyph-name="envase" d="M825.457 453.961c2.023 13.077-0.723 26.082-7.803 36.992 8.381 13.15 12.644 28.828 12.066 44.578v60.762c-0.145 11.777-0.434 33.669-16.979 57.222-8.887 12.644-21.603 24.421-37.859 34.969-18.352 11.921-41.977 22.687-70.227 31.862l-90.963 32.296-0.145 9.32c3.324 1.445 6.214 3.468 8.598 5.997l0.578 0.578 0.361 0.578c8.309 11.56 11.921 25.721 10.115 39.882v60.69c0.361 12.861-4.263 25.071-12.933 34.463-8.815 9.393-20.736 14.884-33.596 15.462h-153.315c-12.933-0.578-24.854-6.069-33.596-15.462-8.742-9.465-13.294-21.675-12.933-34.463v-61.268c-0.289-10.043-0.578-20.447 2.24-29.478 2.89-9.104 8.742-15.462 17.123-18.496v-7.659l-91.107-33.958c-104.979-35.258-120.658-91.18-120.658-121.38v-55.633c-0.072-16.256 4.913-31.573 14.45-44.651-3.613-4.769-6.647-10.043-9.031-15.678-3.54-8.381-5.347-17.412-5.419-26.805v-80.342c0.072-14.956 4.696-29.117 13.294-41.11-8.67-12.066-13.222-26.155-13.294-40.966v-80.27c0.072-15.173 4.985-29.984 14.017-42.050-9.104-12.138-13.944-26.588-14.017-41.905v-80.414c0.217-18.785 7.659-36.486 20.88-49.853 13.294-13.366 30.923-20.88 49.708-21.169h493.251c0.434 0 0.939 0 1.59 0.072 18.279 0.795 35.186 8.67 47.541 22.109 12.355 13.366 18.857 30.779 18.135 49.13v80.053c0.072 14.811-4.552 29.55-13.15 41.688 8.67 12.283 13.294 27.238 13.15 42.339v80.198c0.145 14.45-4.191 28.972-12.21 41.038 8.020 12.138 12.355 26.66 12.21 41.11l-0.072 79.62zM443.977 823.52v37.931h132.001v-37.931h-132.001zM755.013 525.055c-15.389-0.795-27.455-13.872-26.877-29.261v-2.312c-0.072-7.297 2.673-14.306 7.731-19.724 4.985-5.347 11.849-8.453 19.291-8.815h1.084c5.058-0.217 9.104-4.407 8.959-9.465l-0.723-83.232v-0.578c0-2.529-0.939-4.985-2.746-6.792s-4.191-2.818-6.792-2.818h-0.867c-14.306-1.156-25.504-12.355-26.66-26.66-0.65-7.803 1.734-15.317 6.792-21.314 5.058-5.925 12.066-9.537 19.869-10.26h1.373c2.457-0.072 4.696-1.156 6.43-2.962 1.662-1.806 2.529-4.118 2.457-6.575v-87.278c0-5.274-4.263-9.609-9.537-9.609h-0.289c-12.933-0.434-23.77-9.537-26.444-22.181-0.795-2.529-1.228-5.419-1.373-8.453-0.578-15.389 11.488-28.539 26.949-29.334h0.939c2.529 0 5.058-1.084 6.864-2.89s2.746-4.263 2.746-6.936v-77.597c0-4.769-4.046-8.742-8.887-8.742h-483.931c-5.925 0-10.982 4.552-11.632 10.404v75.501c0.65 5.852 5.78 10.404 11.632 10.404h188.211c15.389 0.723 27.455 13.872 26.949 29.261v1.517c0.217 7.442-2.384 14.522-7.442 19.941-4.985 5.491-11.921 8.742-19.435 9.176h-188.067c-5.925 0-10.982 4.624-11.632 10.476v85.616c0.723 5.852 5.78 10.404 11.632 10.404h181.781c14.306 1.156 25.504 12.355 26.66 26.66 0.65 7.803-1.734 15.317-6.792 21.314-5.058 5.925-12.066 9.537-19.869 10.26h-181.492c-5.997 0-11.199 4.624-11.921 10.549l0.723 82.004c0.65 5.997 5.563 10.332 11.632 10.332h172.678c15.389 0.723 27.455 13.872 27.022 29.261v1.517c0.434 15.389-11.632 28.467-26.949 29.261h-172.1c-6.792 0.578-12.21 6.358-12.355 13.15l-0.361 74.201c-0.072 8.67 8.164 23.265 48.191 43.856 30.779 15.895 70.877 30.562 109.603 44.795l23.12 8.526c4.841 1.806 10.982 5.925 13.005 15.606 1.084 4.913 0.795 10.043 0.578 14.161v25.938h108.231l0.217-24.276c0-5.202 0.939-22.542 13.294-29.334 2.746-1.806 5.925-3.107 9.176-3.757 39.593-14.089 89.879-32.729 127.449-51.731 18.063-9.176 31.862-17.701 40.894-25.504 10.982-9.393 12.572-15.389 12.572-18.135l0.361-74.418c0.217-6.936-5.058-12.644-11.921-13.15z" />
<glyph unicode="&#xe917;" glyph-name="estado-aviso" d="M512.036 920.479c-255.259 0-462.978-211.982-462.978-472.515s207.719-472.515 462.978-472.515 462.978 211.982 462.978 472.515-207.719 472.515-462.978 472.515zM909.050 447.964c0-223.469-178.096-405.323-397.014-405.323s-397.014 181.853-397.014 405.323 178.096 405.323 397.014 405.323c218.918 0 397.014-181.853 397.014-405.323zM605.961 242.196h-34.030v243.049c0 19.146-15.173 34.68-33.958 34.68h-136.119c-18.785 0-34.030-15.534-34.030-34.68s15.245-34.752 34.030-34.752h34.030v-208.297h-34.030c-18.785 0-34.030-15.534-34.030-34.68 0-19.219 15.245-34.752 34.030-34.752h204.034c18.857 0 34.030 15.534 34.030 34.752 0.072 19.146-15.1 34.68-33.958 34.68zM503.872 589.357c37.57 0 67.987 31.14 67.987 69.432s-30.417 69.432-67.987 69.432-67.987-31.068-67.987-69.432 30.417-69.432 67.987-69.432z" />
<glyph unicode="&#xe918;" glyph-name="factura" d="M874.081 63.738v768.524c0 14.595-12.066 26.444-26.949 26.444h-397.159v-248.323c0-23.192-19.291-42.050-42.917-42.050h-257.066v-504.594c0-14.595 12.066-26.444 26.949-26.444h670.191c14.884 0.072 26.949 11.921 26.949 26.444v0zM847.132 921.852c50.431 0 91.396-40.099 91.396-89.59v-768.524c0-49.491-40.894-89.59-91.396-89.59h-670.191c-50.431 0-91.396 40.171-91.396 89.59v522.368c0 23.698 9.537 46.457 26.66 63.219l249.841 246.084c17.196 16.979 40.46 26.444 64.736 26.444h420.351zM714.192 378.748c-26.805 0-38.076 29.478-76.079 29.478-37.642 0-56.861-23.987-68.565-56.644h96.815c13.655 0 26.299-0.939 26.299-17.485 0-16.618-11.705-18.93-26.299-18.93h-103.534c-0.506-3.685-1.012-7.37-1.012-11.054v-14.739h83.593c13.655 0 26.299-0.939 26.299-17.485 0-16.618-11.777-18.93-26.299-18.93h-78.825c9.898-36.848 30.562-63.147 72.395-63.147 33.813 0 53.537 27.166 78.464 27.166 17.34 0 27.744-14.306 27.744-30.417 0-44.651-76.585-55.705-110.832-55.705-81.354 0-129.255 45.156-142.838 122.103h-10.765c-13.15 0-25.866 1.806-25.866 17.918 0 19.363 18.352 18.424 32.874 18.424v12.933c0 4.118 0 8.742 0.434 12.861h-8.453c-13.15 0-25.36 1.806-25.36 17.918 0 22.181 23.481 18.424 38.943 18.424 16.907 72.322 66.687 117.912 144.211 117.912 33.38 0 108.52-13.366 108.52-56.211 0.072-17.846-12.716-34.391-31.862-34.391v0z" />
<glyph unicode="&#xe919;" glyph-name="filtro" d="M942.502 171.463h-55.488c-7.948 25.649-23.265 47.685-44.289 64.014-22.253 17.196-48.769 26.371-76.73 26.371-27.889 0-54.404-9.104-76.73-26.371-21.097-16.329-36.342-38.437-44.217-64.014h-563.55c-21.458 0-38.871-17.774-38.871-39.593s17.412-39.593 38.871-39.593h563.261c7.948-25.649 23.265-47.685 44.289-64.014 22.253-17.196 48.769-26.371 76.73-26.371 27.889 0 54.404 9.104 76.73 26.371 21.097 16.329 36.342 38.437 44.217 64.014h55.705c21.458 0 38.871 17.774 38.871 39.593s-17.412 39.593-38.798 39.593zM765.851 81.15c-27.238 0-49.491 22.759-49.491 50.72s22.181 50.72 49.491 50.72c27.311 0 49.491-22.759 49.491-50.72s-22.181-50.72-49.491-50.72zM81.498 724.537h55.488c7.948-25.649 23.265-47.685 44.289-64.014 22.253-17.196 48.769-26.371 76.73-26.371 27.889 0 54.404 9.104 76.73 26.371 21.097 16.329 36.342 38.437 44.217 64.014h563.478c21.458 0 38.871 17.774 38.871 39.593 0 21.892-17.412 39.593-38.871 39.593h-563.189c-7.948 25.649-23.265 47.685-44.289 64.014-22.253 17.196-48.769 26.371-76.73 26.371-27.889 0-54.404-9.104-76.73-26.371-21.097-16.329-36.342-38.437-44.217-64.014h-55.705c-21.458 0-38.871-17.774-38.871-39.593s17.412-39.593 38.798-39.593zM208.658 764.13c0 27.961 22.181 50.72 49.491 50.72 27.238 0 49.491-22.759 49.491-50.72s-22.181-50.72-49.491-50.72c-27.311 0-49.491 22.759-49.491 50.72zM942.502 487.629h-313.565c-9.465 22.903-24.999 42.411-45.084 56.5-21.242 14.811-46.023 22.759-71.817 22.759-25.721 0-50.575-7.875-71.817-22.759-20.158-14.161-35.619-33.524-45.084-56.5h-313.637c-21.458 0-38.871-17.774-38.871-39.593 0-21.892 17.412-39.593 38.871-39.593h306.557c13.15-59.028 64.519-101.222 124.053-101.222s110.904 42.339 123.981 101.15h306.412c21.458 0 38.871 17.774 38.871 39.593-0.072 21.892-17.485 39.665-38.871 39.665zM561.455 436.693c0-27.961-22.181-50.72-49.491-50.72s-49.491 22.759-49.491 50.72c0 27.961 22.181 50.72 49.491 50.72s49.491-22.759 49.491-50.72z" />
<glyph unicode="&#xe91a;" glyph-name="firma" d="M75.863 758.784c24.493-23.987 63.147-24.999 89.301-3.107 19.363 16.762 36.053 26.66 45.373 22.398 26.155-10.476 0-53.754-15.678-79.403-12.861-21.892-149.196-203.095-149.196-329.46 0-66.904 24.999-122.175 70.010-155.627 39.16-29.261 90.891-38.148 137.853-23.987 55.922 16.184 101.873 73.117 159.817 144.645 63.147 77.741 147.751 179.614 213.065 179.614 85.111 0 86.194-52.743 91.902-93.419-197.459-33.38-280.98-191.679-280.98-280.475s75.14-161.407 167.62-161.407c85.111 0 224.047 69.432 244.928 318.55h63.147c36.053 0 65.242 29.261 65.242 65.242s-29.261 65.242-65.242 65.242h-63.725c-7.875 86.194-56.933 219.351-210.464 219.351-117.551 0-218.34-99.777-258.005-148.329-30.273-38.148-107.58-129.544-119.574-142.044-13.005-15.678-35.547-43.856-57.945-43.856-23.481 0-37.642 43.35-18.785 100.283 18.279 56.933 73.117 149.341 96.671 183.804 40.749 59.534 67.915 100.283 67.915 171.305 0 113.288-85.616 149.341-131.062 149.341-56.933 0-106.569-32.874-141.032-63.725-27.672-24.999-27.672-68.927-1.084-95.009l-0.072 0.072zM606.467 105.499c-16.184 0-38.654 13.511-38.654 37.642 0 31.357 38.148 114.878 149.919 144.139-15.678-140.526-74.707-181.781-111.265-181.781v0z" />
<glyph unicode="&#xe91b;" glyph-name="historial" d="M76.73 602.507c7.37 19.002 28.9 28.539 48.263 21.386 19.291-7.153 29.045-28.394 21.747-47.468-35.981-93.492-33.741-195.509 6.358-287.411 41.11-94.359 117.117-167.259 213.932-205.335s202.95-36.775 298.826 3.685c27.816 11.705 53.682 26.371 77.524 43.495 58.306 42.050 103.679 99.344 131.134 167.042 38.726 95.298 37.426 199.699-3.757 293.985-41.11 94.359-117.117 167.259-213.932 205.335-92.625 36.414-193.847 36.703-286.399 1.228l26.516-44.073c7.297-12.138 1.734-20.158-12.427-17.918l-125.932 20.013c-14.161 2.24-21.747 14.956-16.979 28.178l42.772 118.346c4.769 13.222 14.667 14.161 21.964 2.095l25.577-42.483c113.36 46.818 238.497 47.902 352.797 2.962 115.383-45.445 205.985-132.29 254.97-244.711 48.986-112.349 50.575-236.763 4.407-350.341-32.802-80.631-86.845-148.98-156.277-198.977-28.322-20.447-59.245-37.859-92.408-51.803-114.227-48.191-240.737-49.78-356.121-4.335-115.456 45.445-205.985 132.29-254.97 244.711-47.685 109.387-50.431 231.056-7.586 342.393v0zM495.635 734.435c16.762 0 30.273-13.366 30.273-29.767v-260.678l243.338-123.837c14.884-7.514 20.664-25.577 13.005-40.171-5.419-10.26-16.040-16.184-26.949-16.184-4.696 0-9.393 1.084-13.872 3.324l-276.067 140.454v297.020c0 16.473 13.511 29.839 30.273 29.839v0z" />
<glyph unicode="&#xe91c;" glyph-name="intervencion" d="M109.892 124.573c-0.072 43.061 35.114 78.102 78.608 78.102s78.68-34.969 78.608-78.102c0-43.061-35.041-78.102-78.608-78.102s-78.68 34.68-78.608 78.102zM596.569 328.824l5.058 5.997c100.717-27.816 213.282-2.529 292.396 75.935 78.464 78.102 104.185 188.356 77.091 287.627l-169.499-168.054-166.031 44-44.506 164.586 169.426 168.343c-100.139 26.588-211.404 1.228-290.012-76.874-82.437-81.498-106.641-199.266-72.9-302.294l-0.867-0.939-310.531-307.279c-27.672-27.527-41.544-63.363-41.544-98.983 0-35.908 13.944-71.528 41.472-99.344 54.982-54.693 144.428-54.693 199.771 0l310.675 307.279z" />
<glyph unicode="&#xe91d;" glyph-name="lavanderia" d="M646.999 748.958c-14.017 0-25.504-11.56-25.504-25.866 0-14.233 11.416-25.866 25.504-25.866 14.017 0 25.504 11.56 25.504 25.866 0 14.233-11.416 25.793-25.504 25.866zM511.964 101.164c53.537 0 104.763 20.23 144.283 57.005 38.22 35.547 62.352 83.521 68.204 135.469 13.15 1.012 23.554 12.138 23.554 25.793s-10.476 24.854-23.77 25.793c-6.214 51.514-30.49 99.055-68.638 134.241-39.449 36.342-90.385 56.427-143.561 56.427-0.072 0-0.072 0-0.145 0-117.984 0-213.932-97.465-213.932-217.328s96.020-217.4 214.005-217.4zM663.689 345.369c-14.017 0-25.504-11.56-25.504-25.866 0-14.233 11.416-25.866 25.504-25.866h12.283c-5.636-38.654-24.493-74.273-53.465-100.644-30.417-27.744-69.721-42.989-110.47-42.989-91.396 0-165.814 75.574-165.814 168.559s74.418 168.559 165.814 168.559c81.498 0 150.93-60.618 163.646-141.827l-11.994 0.072zM791.861 748.741h-76.368c-14.017 0-25.504-11.56-25.504-25.866 0-14.233 11.416-25.866 25.504-25.866h76.368c14.017 0 25.504 11.56 25.504 25.866s-11.488 25.866-25.504 25.866zM808.984 916.433h-593.895c-80.414 0-145.728-66.398-145.728-147.968v-640.858c0-81.643 65.386-147.968 145.728-147.968h593.895c80.342 0 145.728 66.398 145.728 147.968v640.858c-0.072 81.57-65.386 147.968-145.728 147.968zM131.423 627.144v126.004c0 55.416 44.362 100.572 98.838 100.572h563.406c27.6 0 52.526-8.092 70.155-22.759 18.713-15.534 28.611-37.57 28.611-63.725v-140.021h-761.010zM892.577 567.249v-424.397c0-55.416-44.362-100.5-98.838-100.5h-563.478c-54.477 0-98.838 45.084-98.838 100.5v424.397h761.154z" />
<glyph unicode="&#xe91e;" glyph-name="lista-correcta" d="M90.385 674.612h655.741c25.432 0 46.096 20.664 46.096 46.096s-20.664 46.096-46.096 46.096h-655.741c-25.432 0-46.096-20.664-46.096-46.096 0-25.504 20.664-46.096 46.096-46.096zM735.65 582.421h-645.265c-25.432 0-46.096-20.664-46.096-46.096s20.664-46.096 46.096-46.096h645.265c25.432 0 46.096 20.664 46.096 46.096s-20.664 46.096-46.096 46.096zM373.461 393.632h-283.076c-25.432 0-46.096-20.664-46.096-46.096s20.664-46.096 46.096-46.096h283.076c25.432 0 46.096 20.664 46.096 46.096-0.072 25.504-20.664 46.096-46.096 46.096zM966.272 465.159l-4.191 4.191c-0.217 0.217-0.434 0.434-0.65 0.65-18.063 17.485-46.818 16.979-64.303-1.084l-220.218-220.724-106.063 106.063c-17.918 17.918-46.963 17.846-64.881-0.072l-4.263-4.263c-17.918-17.918-17.846-46.963 0.072-64.881l142.477-142.477c17.918-17.918 46.963-17.846 64.881 0.072l257.21 257.644c17.918 17.918 17.846 46.963-0.072 64.881z" />
<glyph unicode="&#xe91f;" glyph-name="lista-diferente" d="M95.009 397.244h534c27.889 0 50.72 22.831 50.72 50.72s-22.831 50.72-50.72 50.72h-534c-27.889 0-50.72-22.831-50.72-50.72s22.831-50.72 50.72-50.72zM95.009 665.364h263.351c27.889 0 50.72 22.831 50.72 50.72s-22.831 50.72-50.72 50.72h-263.351c-27.889 0-50.72-22.831-50.72-50.72s22.831-50.72 50.72-50.72zM835.789 230.636h-740.78c-27.889 0-50.72-22.831-50.72-50.72s22.831-50.72 50.72-50.72h740.78c27.889 0 50.72 22.831 50.72 50.72s-22.831 50.72-50.72 50.72zM694.323 557.206h229.249c27.889 0 50.72 22.831 50.72 50.72s-22.831 50.72-50.72 50.72h-229.249c-27.889 0-50.72-22.831-50.72-50.72s22.831-50.72 50.72-50.72zM928.991 365.382h-16.329c-27.889 0-50.72-22.831-50.72-50.72s22.831-50.72 50.72-50.72h16.329c27.889 0 50.72 22.831 50.72 50.72s-22.831 50.72-50.72 50.72z" />
<glyph unicode="&#xe920;" glyph-name="lista-manual" d="M562.25 587.768h-469.481c-25.721-0.072-46.529-20.88-46.529-46.601 0.072-25.649 20.88-46.457 46.529-46.529h469.481c25.649 0.072 46.457 20.88 46.529 46.529-0.072 25.649-20.808 46.529-46.529 46.601zM744.898 767.237h-652.129c-25.649-0.072-46.457-20.88-46.529-46.529 0.072-25.649 20.88-46.457 46.529-46.529h652.129c25.649 0.072 46.457 20.88 46.529 46.529-0.072 25.649-20.88 46.457-46.529 46.529zM791.499 401.435v139.732c-0.072 25.721-20.88 46.529-46.601 46.601-25.721-0.072-46.529-20.88-46.529-46.601v-139.732h-139.876c-25.649-0.072-46.457-20.88-46.529-46.529 0.072-25.649 20.88-46.457 46.529-46.529h139.804v-139.804c0-25.721 20.88-46.601 46.601-46.601s46.601 20.88 46.601 46.601v139.732h139.804c25.649 0.072 46.457 20.88 46.529 46.529-0.072 25.649-20.88 46.457-46.529 46.529l-139.804 0.072zM92.769 301.007h279.463c25.721 0.072 46.529 20.88 46.601 46.529-0.072 25.721-20.88 46.529-46.601 46.529h-279.463c-25.649 0-46.457-20.808-46.529-46.529 0.072-25.649 20.88-46.457 46.529-46.529z" />
<glyph unicode="&#xe921;" glyph-name="listado" d="M119.14 523.971c-42.050 0-76.007-33.958-76.007-76.007s33.958-76.007 76.007-76.007 76.007 33.958 76.007 76.007-33.885 76.007-76.007 76.007zM119.14 828.144c-42.050 0-76.007-33.958-76.007-76.007s33.958-76.007 76.007-76.007 76.007 33.958 76.007 76.007-33.885 76.007-76.007 76.007zM119.14 219.798c-42.050 0-76.007-34.463-76.007-76.007s34.463-76.007 76.007-76.007 76.007 34.463 76.007 76.007c0.072 41.544-33.885 76.007-76.007 76.007zM321.946 93.072h608.273c27.889 0 50.72 22.831 50.72 50.72s-22.831 50.72-50.72 50.72h-608.273c-27.889 0-50.72-22.831-50.72-50.72 0-27.816 22.831-50.72 50.72-50.72zM321.946 397.244h608.273c27.889 0 50.72 22.831 50.72 50.72s-22.831 50.72-50.72 50.72h-608.273c-27.889 0-50.72-22.831-50.72-50.72s22.831-50.72 50.72-50.72zM271.227 752.064c0-27.889 22.831-50.72 50.72-50.72h608.273c27.889 0 50.72 22.831 50.72 50.72s-22.831 50.72-50.72 50.72h-608.273c-27.889 0-50.72-22.831-50.72-50.72z" />
<glyph unicode="&#xe922;" glyph-name="localizacion" d="M511.964 344.141c-108.953 0-197.459 88.29-197.459 197.459 0 108.953 88.434 197.315 197.459 197.315 109.098 0 197.459-88.362 197.459-197.315 0-109.17-88.434-197.459-197.459-197.459zM886.002 541.6c0 206.418-167.403 373.894-374.111 373.894-206.418 0-373.894-167.548-373.894-373.894 0-96.093 36.414-183.226 95.804-249.407h-2.168c0 0 139.876-171.738 222.891-282.425l5.997-2.023c11.199-16.401 30.056-27.238 51.37-27.238 19.797 0 37.209 9.393 48.769 23.77l8.887 5.419c82.871 110.398 222.964 282.425 222.964 282.425h-2.312c59.39 66.326 95.804 153.387 95.804 249.479v0z" />
<glyph unicode="&#xe923;" glyph-name="lupa" d="M927.402-20.433c-14.161 0-27.455 5.491-37.426 15.534l-215.45 215.305c-0.867 1.156-2.168 2.818-3.974 4.696l-17.485 17.99-20.953-13.8c-62.063-40.894-134.168-62.569-208.658-62.569-51.298 0-101.006 10.043-147.824 29.839-45.229 19.074-85.833 46.529-120.73 81.426s-62.28 75.501-81.426 120.73c-19.797 46.963-29.839 96.671-29.839 147.896s10.043 100.933 29.839 147.824c19.074 45.229 46.529 85.833 81.426 120.73s75.501 62.28 120.73 81.426c46.746 19.724 96.526 29.839 147.751 29.839 51.298 0 101.006-10.043 147.824-29.839 45.229-19.074 85.833-46.529 120.73-81.426s62.28-75.501 81.426-120.73c19.724-46.818 29.839-96.526 29.839-147.824 0-74.418-21.603-146.595-62.496-208.586l-13.005-19.797 16.040-17.412c2.168-2.312 4.191-3.974 5.491-4.985l216.678-216.822c9.248-9.826 14.378-22.687 14.378-36.27 0-14.161-5.491-27.455-15.534-37.498-9.898-10.043-23.192-15.678-37.353-15.678zM423.385 835.007c-40.243 0-79.331-7.875-116.106-23.481-35.547-15.028-67.482-36.559-94.792-63.941s-48.841-59.245-63.941-94.792c-15.534-36.848-23.481-75.935-23.481-116.178s7.875-79.258 23.481-116.106c15.028-35.547 36.559-67.409 63.941-94.792s59.245-48.841 94.792-63.941c36.775-15.534 75.863-23.481 116.106-23.481s79.331 7.875 116.106 23.481c35.547 15.028 67.409 36.559 94.792 63.941s48.841 59.245 63.941 94.792c15.534 36.775 23.481 75.863 23.481 116.106s-7.875 79.331-23.481 116.106c-15.028 35.547-36.559 67.482-63.941 94.792-27.383 27.383-59.245 48.913-94.792 63.941-36.775 15.606-75.79 23.554-116.106 23.554z" />
<glyph unicode="&#xe924;" glyph-name="mail" d="M964.538 757.194c-15.389 16.040-37.353 25.288-60.329 25.288h-784.419c-21.531 0-41.977-8.381-57.439-23.626-15.534-15.245-24.059-35.403-24.059-56.716v-508.424c0-21.314 8.526-41.472 24.059-56.716 15.462-15.173 35.908-23.481 57.439-23.481h784.347c21.603 0 42.050 8.381 57.439 23.481 15.462 15.173 24.059 35.403 24.059 56.716v508.279c0.867 20.519-6.647 40.099-21.097 55.199zM530.893 414.512c-11.705-8.887-32.368-9.031-42.628-0.361l-0.217 0.145-385.743 294.491c3.685 6.719 10.476 12.283 19.219 12.283h782.685c7.081 0 13.294-4.118 16.979-9.176l-390.295-297.381zM422.229 387.852l28.25-22.253 0.145-0.145c16.112-12.21 36.486-18.713 58.812-18.713 23.337 0 44.867 6.864 59.028 18.857l31.573 23.987 286.255-218.267h-746.849l282.787 216.533zM370.643 427.084l-270.215-206.924v412.259l270.215-205.335zM651.984 428.529l273.394 207.285v-415.871l-273.394 208.586z" />
<glyph unicode="&#xe925;" glyph-name="salir" d="M917.72 467.11l-179.108 142.477c-14.161 11.199-34.897 9.104-46.385-4.696s-9.32-34.102 4.841-45.301l103.823-82.365h-522.729c-18.207 0-32.946-14.45-32.946-32.224 0.434-17.412 15.1-31.284 32.946-31.284h522.44l-103.679-82.51c-6.792-5.419-11.054-13.15-11.994-21.675s1.662-16.979 7.153-23.626c5.419-6.575 13.366-10.838 22.036-11.705s17.34 1.662 24.059 7.008l175.857 139.515c8.959 7.514 12.499 12.644 12.499 24.926 0 10.91-3.179 16.184-8.815 21.458zM496.43 114.747h-334.734v666.507h320.573c17.99 0 32.513 14.522 32.513 32.513s-14.522 32.513-32.513 32.513h-353.086c-17.99 0-32.513-14.522-32.513-32.513v-731.604c0-17.99 14.522-32.513 32.513-32.513h367.175c17.99 0 32.513 14.522 32.513 32.513s-14.522 32.585-32.44 32.585z" />
<glyph unicode="&#xe926;" glyph-name="mas" d="M913.746 515.084h-334.807v334.734c0 36.92-30.056 66.976-66.976 66.976s-66.976-30.056-66.976-66.976v-334.807h-334.807c-36.92 0-66.976-30.056-66.976-66.976s30.056-66.976 66.976-66.976h334.807v-334.807c0-36.92 30.056-66.976 66.976-66.976s66.976 30.056 66.976 66.976v334.807h334.807c36.92 0 66.976 30.056 66.976 66.976s-29.984 67.048-66.976 67.048z" />
<glyph unicode="&#xe927;" glyph-name="menu" d="M94.431 87.581h835.355c28.322 0 51.514 23.192 51.514 51.514s-23.192 51.514-51.514 51.514h-835.355c-28.322 0-51.514-23.192-51.514-51.514s23.192-51.514 51.514-51.514zM94.937 396.522h834.849c28.322 0 51.514 23.192 51.514 51.514s-23.192 51.514-51.514 51.514h-834.849c-28.322 0-51.514-23.192-51.514-51.514s23.192-51.514 51.514-51.514zM42.7 756.905c0-28.322 23.192-51.514 51.514-51.514h835.572c28.322 0 51.514 23.192 51.514 51.514s-23.192 51.514-51.514 51.514h-835.572c-28.322 0-51.514-23.192-51.514-51.514z" />
<glyph unicode="&#xe928;" glyph-name="movil" d="M682.546 916.939h-341.092c-70.805 0-127.883-57.15-127.883-127.883v-682.185c0-70.805 57.15-127.883 127.883-127.883h341.092c70.805 0 127.883 57.15 127.883 127.883v682.113c0 70.805-57.078 127.955-127.883 127.955zM575.977 64.244h-127.883c-11.921 0-21.314 9.393-21.314 21.314s9.393 21.314 21.314 21.314h127.883c11.921 0 21.314-9.393 21.314-21.314 0-11.994-9.393-21.314-21.314-21.314zM725.174 192.126h-426.348v596.93h426.348v-596.93z" />
<glyph unicode="&#xe929;" glyph-name="observacion" d="M665.64 460.969c-30.995 0-56.138 25.432-56.138 56.789s25.143 56.789 56.138 56.789 56.066-25.432 56.066-56.789-24.999-56.789-56.066-56.789zM512.108 460.969c-31.068 0-56.211 25.432-56.211 56.789s25.143 56.789 56.211 56.789c30.995 0 56.066-25.432 56.066-56.789s-25.071-56.789-56.066-56.789zM358.505 460.969c-30.923 0-56.066 25.432-56.066 56.789s25.143 56.789 56.066 56.789c30.995 0 56.211-25.432 56.211-56.789s-25.215-56.789-56.211-56.789zM811.079 870.482h-598.014c-95.009 0-172.1-78.247-172.1-174.628v-356.121c0-96.671 77.091-174.628 172.1-174.628h380.18l80.414-117.262c10.91-15.823 28.467-25.143 47.541-25.143 18.93-0.289 36.703 9.32 47.613 24.854l84.894 122.97c74.345 19.219 129.328 87.639 129.328 169.282v355.976c0 96.382-77.019 174.701-171.955 174.701z" />
<glyph unicode="&#xe92a;" glyph-name="papelera" d="M339.72 477.153c0 16.112 12.716 29.189 28.611 29.189 15.823 0 28.756-13.077 28.756-29.189v-350.052c0-16.184-12.861-29.117-28.756-29.117s-28.611 12.933-28.611 29.117c0 0 0 350.052 0 350.052zM483.353 477.153c0 16.112 12.716 29.189 28.539 29.189 15.895 0 28.756-13.077 28.756-29.189v-350.052c0-16.184-12.861-29.117-28.756-29.117-15.823 0-28.539 12.933-28.539 29.117v350.052zM626.914 477.153c0 16.112 12.716 29.189 28.683 29.189 15.823 0 28.683-13.077 28.683-29.189v-350.052c0-16.184-12.861-29.117-28.683-29.117-15.895 0-28.683 12.933-28.683 29.117v350.052zM196.159 98.057c0-64.447 51.37-116.756 114.878-116.756h402.072c63.363 0 114.878 52.309 114.878 116.756v466.591h-631.827v-466.591zM598.303 798.015h-172.461v29.261c0 16.040 12.861 28.972 28.756 28.972h114.878c15.823 0 28.828-12.933 28.828-28.972v-29.261zM827.986 798.015h-172.316v58.234c0 32.368-25.721 58.45-57.367 58.45h-172.461c-31.646 0-57.511-26.082-57.511-58.45v-58.234h-172.172c-31.862 0-57.511-26.082-57.511-58.378v-58.234c0-32.151 25.649-58.378 57.367-58.378h631.971c31.79 0 57.439 26.227 57.439 58.378v58.234c-0.072 32.368-25.721 58.378-57.439 58.378v0z" />
<glyph unicode="&#xe92b;" glyph-name="perfil" d="M512.036-21.734c-63.363 0-124.92 12.427-182.793 36.92-55.922 23.698-106.208 57.583-149.341 100.717s-77.019 93.419-100.717 149.341c-24.493 57.945-36.92 119.429-36.92 182.793s12.427 124.92 36.92 182.793c23.698 55.922 57.583 106.208 100.717 149.341s93.419 77.019 149.341 100.717c57.945 24.493 119.429 36.92 182.793 36.92s124.92-12.427 182.793-36.92c55.922-23.698 106.208-57.583 149.341-100.717s77.019-93.419 100.717-149.341c24.493-57.945 36.92-119.429 36.92-182.793s-12.427-124.92-36.92-182.793c-23.698-55.922-57.583-106.208-100.717-149.341s-93.419-77.019-149.341-100.717c-57.945-24.565-119.429-36.92-182.793-36.92zM512.036 244.797c-45.301 0-101.728-10.332-150.786-27.6-31.212-10.982-85.978-34.391-101.656-67.12l-5.13-10.765 9.32-7.37c34.68-27.527 73.262-48.986 114.661-63.725 42.772-15.173 87.712-22.903 133.59-22.903s90.818 7.731 133.59 22.903c41.399 14.739 79.981 36.125 114.661 63.725l9.248 7.297-4.985 10.693c-15.317 32.874-70.227 56.283-101.511 67.265-49.275 17.268-105.63 27.6-151.003 27.6zM512.036 311.917c31.79 0 90.24-6.358 150.425-24.204 47.035-13.944 110.543-39.738 146.306-83.304l11.994-14.595 11.416 15.028c26.155 34.319 46.529 72.178 60.546 112.493 14.595 42.050 22.036 86.050 22.036 130.7 0 222.097-180.697 402.722-402.722 402.722s-402.794-180.697-402.794-402.722c0-44.651 7.442-88.651 22.036-130.7 14.017-40.316 34.391-78.102 60.546-112.493l11.416-15.028 11.994 14.595c35.764 43.495 99.344 69.288 146.306 83.304 60.257 17.846 118.707 24.204 150.497 24.204zM512.036 414.512c-41.472 0-80.414 16.040-109.531 45.229-29.117 29.117-45.229 68.060-45.229 109.531s16.040 80.414 45.229 109.531c29.117 29.117 68.060 45.229 109.531 45.229s80.414-16.040 109.531-45.229c29.117-29.117 45.229-68.060 45.229-109.531s-16.040-80.414-45.229-109.531c-29.117-29.189-68.132-45.229-109.531-45.229zM512.036 656.839c-23.481 0-45.445-9.104-61.991-25.649s-25.649-38.582-25.649-61.991c0-23.481 9.104-45.445 25.649-61.991s38.582-25.649 61.991-25.649 45.445 9.104 61.991 25.649c16.545 16.545 25.649 38.582 25.649 61.991 0 23.481-9.104 45.445-25.649 61.991-16.618 16.545-38.654 25.649-61.991 25.649z" />
<glyph unicode="&#xe92c;" glyph-name="phone" d="M503.077 244.58c16.112-24.782 40.316-24.782 75.068 0 24.059-59.606 133.952-258.583 133.952-258.583s-71.383-28.322-173.183 41.327c-65.748 45.156-197.17 180.842-274.984 370.715-42.411 103.39-55.994 216.461-55.994 344.272 2.818 111.988 51.659 143.85 102.306 158.878l91.18-281.053c0 0-63.58-20.302-36.775-99.85 0-0.072 24.493-141.899 138.431-275.706v0zM468.325 861.379c40.243-77.235 69.649-196.376-26.733-233.946-26.877 72.25-90.963 283.581-90.963 283.581s77.597 27.238 117.695-49.636v0zM738.901 248.987c0 0 37.281-71.455 69.505-128.822 32.151-57.078-48.191-114.227-48.191-114.227l-139.226 254.826c80.125 44.289 117.984-11.777 117.912-11.777v0z" />
<glyph unicode="&#xe92d;" glyph-name="piezas" d="M514.709 362.926c43.928 0 82.293 38.437 82.293 82.293 0 43.928-38.437 82.293-82.293 82.293s-82.293-38.437-82.293-82.293 38.437-82.293 82.293-82.293zM514.709 582.493c76.874 0 137.203-60.401 137.203-137.203s-60.401-137.203-137.203-137.203-137.203 60.329-137.203 137.203c0 76.802 60.401 137.203 137.203 137.203zM931.881 412.272v71.383c0 5.491-5.491 10.982-10.91 10.982h-49.419c-27.455 0-54.838 16.473-60.329 43.928-5.491 16.473-10.982 32.946-21.964 49.419-10.982 27.455-10.982 54.91 10.982 76.874l38.437 38.437c5.491 5.491 5.491 10.982 0 10.982l-54.91 54.91c-5.491 5.491-10.982 5.491-10.982 0l-38.365-38.437c-21.964-16.473-49.419-21.964-76.874-10.91-16.473 5.491-32.946 16.473-49.419 21.964-27.455 10.982-43.928 32.946-43.928 60.401v49.419c0 5.491-5.491 10.982-10.91 10.982h-71.383c-5.491 0-10.91-5.491-10.91-10.982v-49.419c0-27.455-16.473-54.91-43.928-60.401-16.473-5.491-32.874-10.982-49.419-21.964-27.455-10.982-54.91-10.982-76.874 10.91l-38.509 38.293c-5.491 5.491-10.982 5.491-10.982 0l-54.91-54.91c-5.491-5.491-5.491-10.982 0-10.982l38.437-38.437c21.964-21.892 21.964-49.347 10.982-76.802-5.491-16.473-16.473-32.874-21.964-49.419-10.982-27.455-32.874-43.928-60.329-43.928h-49.419c-5.491 0-10.91-5.491-10.91-10.982v-71.239c0-5.491 5.491-10.982 10.91-10.982h49.419c27.455 0 54.838-16.473 60.329-43.928 5.491-16.473 10.982-32.946 21.964-49.419 10.982-27.455 10.982-54.91-10.982-76.874l-38.437-38.437c-5.491-5.491-5.491-10.91 0-10.91l54.91-54.91c5.491-5.491 10.982-5.491 10.982 0l38.365 38.437c10.982 10.982 27.455 16.473 43.928 16.473 10.982 0 21.964 0 32.874-5.491 21.964-10.982 49.419-21.964 71.383-27.455 10.91-5.491 21.964-16.473 21.964-27.455v-76.802c0-5.491 5.491-10.982 10.91-10.982h71.383c5.491 0 10.91 5.491 10.91 10.982v49.419c0 27.455 16.473 54.91 43.928 60.329 16.473 5.491 32.874 10.982 49.419 21.964 27.455 10.982 54.91 10.982 76.874-10.982l38.437-38.437c5.491-5.491 10.982-5.491 10.982 0l54.91 54.91c5.491 5.491 5.491 10.982 0 10.982l-38.437 38.437c-21.964 21.964-21.964 49.419-10.91 76.874 5.491 16.473 16.473 32.874 21.964 49.419 10.982 27.455 32.874 43.928 60.329 43.928h49.419c5.491-0.072 10.982 5.419 10.982 10.838v0zM915.408 549.475c32.874 0 65.82-27.455 65.82-65.82v-71.383c0-32.946-27.455-65.82-65.82-65.82h-49.419c-5.491 0-5.491-5.491-10.982-5.491-5.491-21.964-16.473-38.437-21.964-54.91v-10.982l38.365-38.437c27.455-27.455 27.455-65.892 0-93.347l-54.838-54.91c-21.964-21.964-65.892-21.964-93.347 0l-38.437 38.437c-5.491 5.491-5.491 5.491-10.982 0-16.473-10.982-38.437-16.473-54.91-21.964-5.491 0-5.491-5.491-5.491-10.982v-49.347c0-38.437-27.455-65.82-60.329-65.82h-71.383c-32.874 0-65.82 27.383-65.82 65.82v54.91c-21.964 5.491-43.928 16.473-65.892 27.455h-10.91l-38.437-38.437c-21.964-21.964-65.82-21.964-93.347 0l-54.91 54.91c-27.455 27.455-27.455 65.82 0 93.275l38.437 38.437c5.491 5.491 0 10.982 0 10.982-10.982 16.473-16.473 38.437-21.964 54.91 0 5.491-5.491 5.491-10.91 5.491h-49.419c-32.946 0-65.892 27.455-65.892 65.82v71.383c0 32.874 27.455 65.82 65.892 65.82h49.419c5.491 0 5.491 5.491 10.91 5.491 5.491 21.964 16.473 38.437 21.964 54.91v10.982l-38.437 38.437c-27.455 27.455-27.455 65.82 0 93.275l54.91 54.91c21.964 21.964 65.82 21.964 93.347 0l38.437-38.437c5.491-5.491 5.491-5.491 10.91 0 16.473 10.982 38.437 16.473 54.91 21.964 5.491 0 5.491 5.491 5.491 10.982v49.419c0 32.946 27.455 65.892 65.892 65.892h71.311c32.946 0 65.82-27.455 65.82-65.892v-49.419c0-5.491 5.491-5.491 5.491-10.982 16.401-5.491 38.437-16.473 54.91-21.964h11.127l38.365 38.437c21.964 21.964 65.892 21.964 93.347 0l54.838-54.91c27.455-27.455 27.455-65.82 0-93.275l-38.365-38.437c-5.491-5.491 0-10.982 0-10.982 10.91-16.473 16.473-38.437 21.964-54.91 0-5.491 5.491-5.491 10.982-5.491 0 0 49.347 0 49.347 0z" />
<glyph unicode="&#xe92e;" glyph-name="radiadores" d="M902.331 688.773h-35.186v63.725c0 59.317-48.263 107.58-107.58 107.58-28.467 0-55.994-11.488-76.079-31.646-20.375 20.447-47.324 31.646-76.224 31.646-28.539 0-56.138-11.488-76.224-31.646-20.086 20.158-47.685 31.646-76.224 31.646-28.467 0-55.994-11.488-76.079-31.646-20.375 20.447-47.324 31.646-76.224 31.646-28.539 0-56.138-11.488-76.224-31.646-20.086 20.158-47.685 31.646-76.224 31.646-59.317 0-107.58-48.263-107.58-107.58v-608.996c0-27.889 10.693-54.332 30.056-74.49 18.641-19.435 43.495-30.995 70.155-32.874v-0.217l624.385 0.217c26.66 1.806 51.442 13.439 70.083 32.874 19.363 20.158 29.984 46.601 29.984 74.49v368.186h35.186c43.639 0 79.114 35.475 79.114 79.042v19.002c0 43.567-35.547 79.042-79.114 79.042zM918.443 590.73c0-8.959-7.225-16.184-16.184-16.184h-35.186v51.298h35.186c8.959 0 16.184-7.225 16.184-16.112v-19.002zM105.413 143.502v608.996c0 24.637 20.013 44.651 44.651 44.651 24.71 0 44.795-20.013 44.795-44.651v-653.718h-44.795c-24.493 0-44.651 20.086-44.651 44.723zM257.788 98.779v653.718c0 24.637 20.086 44.651 44.795 44.651 24.637 0 44.651-20.013 44.651-44.651v-653.718h-89.446zM410.164 752.498c0 24.637 20.013 44.651 44.651 44.651 24.71 0 44.795-20.013 44.795-44.651v-653.718h-89.446v653.718zM562.467 752.498c0 24.637 20.086 44.651 44.795 44.651 24.637 0 44.651-20.013 44.651-44.651v-653.718h-89.446v653.718zM714.914 752.498c0 24.637 20.013 44.651 44.651 44.651 24.71 0 44.795-20.013 44.795-44.651v-608.996c0-24.637-20.086-44.723-44.795-44.723h-44.651v653.718z" />
<glyph unicode="&#xe92f;" glyph-name="observaciones" d="M757.253 824.387h-490.361c-93.708 0-169.932-77.163-169.932-171.955v-292.035c0-45.951 17.629-89.084 49.636-121.525 32.079-32.513 74.779-50.431 120.296-50.431h296.586l57.367-83.666c0 0 0-0.072 0.072-0.072 14.233-20.664 37.57-33.018 62.424-33.091 0.289 0 0.578 0 0.939 0 24.421 0 47.541 12.138 61.918 32.657 0.072 0.072 0.072 0.145 0.145 0.217l63.869 92.48c69.36 22.903 116.901 88.579 116.901 163.502v291.89c-0.072 94.864-76.224 172.027-169.86 172.027zM869.457 360.469c0-52.454-34.752-98.116-84.46-110.976-6.719-1.734-12.572-5.852-16.473-11.488l-69.505-100.717c-3.613-5.058-9.32-8.164-15.028-8.092-0.145 0-0.289 0-0.434 0-6.141 0-11.705 2.962-15.317 8.164l-65.892 96.093c-5.347 7.803-14.233 12.499-23.77 12.499h-311.687c-29.912 0-58.089 11.849-79.258 33.307-21.314 21.603-33.018 50.431-33.018 81.137v292.035c0 63.074 50.431 114.444 112.349 114.444h490.361c61.846 0 112.204-51.37 112.204-114.444v-291.962zM730.087 679.236h-436.174c-19.074 0-34.536-15.462-34.536-34.536 0-19.146 15.462-34.536 34.536-34.536h436.174c19.074 0 34.536 15.462 34.536 34.536 0.072 19.074-15.462 34.536-34.536 34.536zM722.284 541.022h-428.371c-19.074 0-34.536-15.462-34.536-34.536s15.462-34.536 34.536-34.536h428.371c19.074 0 34.536 15.462 34.536 34.536 0 19.002-15.534 34.536-34.536 34.536zM593.173 411.911h-299.26c-19.074 0-34.536-15.462-34.536-34.536s15.462-34.536 34.536-34.536h299.26c19.074 0 34.536 15.462 34.536 34.536 0 19.002-15.462 34.536-34.536 34.536z" />
<glyph unicode="&#xe930;" glyph-name="servicios" d="M561.961 467.327l-81.498 81.281 68.421 68.276c-29.117 78.68-12.066 170.438 51.298 233.657 52.526 52.381 124.776 73.045 192.835 61.991 7.586-1.228 13.728-6.503 16.040-13.728 2.384-7.153 0.434-15.1-4.985-20.447l-46.89-46.746c-38.076-38.076-38.076-99.777 0-137.853 38.148-38.004 99.994-38.004 138.214 0l46.89 46.746c5.347 5.347 13.294 7.297 20.447 4.913 7.225-2.312 12.572-8.526 13.8-15.967 11.054-67.915-9.609-140.021-62.207-192.402-62.352-62.207-152.664-79.764-230.767-52.381l-31.573-31.501c-14.667 14.522-34.102 22.542-54.766 22.542-12.499 0-24.493-2.962-35.258-8.381v0zM437.185 343.635c-15.751-29.334-11.343-66.687 13.366-91.396l-244.639-244.061c-36.92-36.775-96.743-36.775-133.663 0s-36.92 96.526 0 133.301l283.798 283.076 81.137-80.92zM618.316 419.208l278.379-277.729c36.848-36.775 36.848-96.526 0-133.301-36.92-36.775-96.743-36.775-133.663 0l-278.452 277.729c-11.632 11.56-11.632 30.345 0 41.905l18.135 18.063-301.788 301.066-14.089-14.017c-12.861-12.788-34.174-11.199-44.94 3.396l-90.674 122.825c-8.67 11.849-7.514 28.178 2.89 38.509l52.237 52.165c10.404 10.332 26.805 11.56 38.654 2.89l123.186-90.457c14.595-10.765 16.256-32.007 3.324-44.867l-14.089-14.017 301.788-300.994 16.979 16.834c5.78 5.78 13.439 8.67 21.025 8.67 7.514 0 15.173-2.962 21.097-8.67v0z" />
<glyph unicode="&#xe931;" glyph-name="sort" d="M512.036-19.349l-350.557 394.341h700.97l-350.413-394.341zM512.036 915.349l350.557-394.341h-701.115l350.557 394.341z" />
<glyph unicode="&#xe932;" glyph-name="toggle-off" d="M871.986 837.247c16.112 0 29.261-13.15 29.261-29.261v-721.417c0-16.112-13.15-29.261-29.261-29.261h-721.417c-16.112 0-29.261 13.15-29.261 29.261v721.417c0 16.112 13.15 29.261 29.261 29.261h721.417zM871.986 917.445h-721.417c-60.401 0-109.387-48.986-109.387-109.459v-721.417c0-60.473 48.986-109.459 109.459-109.459h721.417c60.473 0 109.459 48.986 109.459 109.459v721.417c-0.072 60.473-49.058 109.459-109.531 109.459v0z" />
<glyph unicode="&#xe933;" glyph-name="toggle-on" d="M876.321 916.433h-728.642c-57.294 0-104.112-46.818-104.112-104.112v-728.642c0-57.294 46.818-104.112 104.112-104.112h728.642c57.294 0 104.112 46.818 104.112 104.112v728.642c0 57.294-46.818 104.112-104.112 104.112zM444.916 224.711c-20.302-20.302-53.104-20.302-73.406 0l-186.839 186.839c-9.754 9.754-15.245 22.903-15.245 36.703 0 13.728 5.491 26.949 15.245 36.703 20.302 20.302 53.104 20.302 73.406 0l149.847-149.919 358.071 358.071c20.302 20.302 53.104 20.302 73.406 0s20.302-53.104 0-73.406l-394.485-394.991z" />
<glyph unicode="&#xe934;" glyph-name="usuario" d="M512.108 373.691c218.918 0 396.436-175.568 396.436-392.173h-793.017c0 216.533 177.591 392.173 396.581 392.173zM730.809 698.094c0-119.502-98.043-216.244-218.773-216.244-120.802 0-218.845 96.743-218.845 216.244 0.145 119.429 98.043 216.389 218.918 216.389 120.658 0 218.701-96.96 218.701-216.389z" />
<glyph unicode="&#xe935;" glyph-name="ver" d="M512.036 775.112c-212.415 0-393.835-135.613-467.313-327.076 73.478-191.463 254.898-327.076 467.313-327.076s393.835 135.613 467.313 327.076c-73.551 191.463-254.97 327.076-467.313 327.076zM512.036 229.913c-117.262 0-212.415 97.682-212.415 218.051s95.153 218.051 212.415 218.051 212.415-97.682 212.415-218.051-95.226-218.051-212.415-218.051zM512.036 578.809c-70.516 0-127.449-58.45-127.449-130.845s56.861-130.773 127.449-130.773 127.449 58.45 127.449 130.845-56.933 130.773-127.449 130.773z" />
<glyph unicode="&#xe936;" glyph-name="mantenimiento" d="M874.081 63.738v768.524c0 14.595-12.066 26.444-26.949 26.444h-397.159v-248.323c0-23.192-19.291-42.050-42.917-42.050h-257.066v-504.594c0-14.595 12.066-26.444 26.949-26.444h670.191c14.884 0.072 26.949 11.921 26.949 26.444v0zM847.132 921.852c50.431 0 91.396-40.099 91.396-89.59v-768.524c0-49.491-40.894-89.59-91.396-89.59h-670.191c-50.431 0-91.396 40.171-91.396 89.59v522.368c0 23.698 9.537 46.457 26.66 63.219l249.841 246.084c17.196 16.979 40.46 26.444 64.736 26.444h420.351zM684.642 434.525h-347.884c-25.721 0-46.529-20.736-46.529-46.457s20.808-46.601 46.529-46.601h347.812c25.721 0 46.529 20.808 46.529 46.601 0.072 25.721-20.808 46.457-46.457 46.457zM686.809 589.574h-130.7c-25.649 0-46.529-20.808-46.529-46.529s20.88-46.457 46.529-46.457h130.7c25.721 0 46.529 20.808 46.529 46.457 0 25.721-20.88 46.529-46.529 46.529zM556.109 651.637h130.7c25.721 0 46.529 20.808 46.529 46.457 0 25.721-20.808 46.601-46.529 46.601h-130.7c-25.649 0-46.529-20.88-46.529-46.601 0-25.649 20.88-46.457 46.529-46.457zM684.642 259.391h-347.884c-25.721 0-46.529-20.808-46.529-46.601 0-25.721 20.808-46.529 46.529-46.529h347.812c25.721 0 46.529 20.808 46.529 46.529 0.072 25.793-20.808 46.601-46.457 46.601z" />
<glyph unicode="&#xe937;" glyph-name="peso" d="M951.1 130.28c-9.248 48.913-16.473 99.416-23.481 148.257-3.107 22.036-6.358 44.795-9.826 67.265-2.095 13.944-4.263 27.889-6.358 41.833-8.959 59.39-18.279 120.73-27.816 181.059-9.826 61.991-48.552 94.792-111.915 94.792-0.072 0-0.217 0-0.289 0-41.833-0.072-84.244 0-125.643 0.072 10.332 20.23 15.751 43.061 15.751 65.892 0 39.304-15.606 76.368-44 104.329-14.017 13.8-30.273 24.637-48.408 32.079-18.857 7.803-38.726 11.56-59.173 11.343-39.81-0.578-77.163-16.040-105.268-43.639-28.322-27.816-44-64.736-44.145-103.968-0.072-22.903 5.419-45.734 15.895-66.037-11.777 0-23.481 0-35.258 0-31.718 0-64.447 0-96.671 0-76.802 0-101.728-48.046-109.17-88.362-6.719-36.775-12.283-74.129-17.629-110.254-1.806-12.283-3.685-24.999-5.563-37.426-7.659-50.214-13.728-101.078-19.652-150.28-6.069-50.286-12.283-102.234-20.158-153.098-5.058-32.802 6.503-61.413 33.596-82.799 19.219-15.1 41.616-22.47 68.638-22.47 97.61 0.072 194.714 0.072 288.567 0 57.728 0 115.745-0.072 174.628-0.072 28.9 0 58.234 0.072 86.628 0.072 42.555 0.072 86.483 0.145 129.689 0.072 0.072 0 0.145 0 0.217 0 29.334 0 58.161 13.655 77.163 36.486 17.774 21.314 24.71 47.83 19.652 74.851zM448.817 788.695c16.473 16.184 38.582 25.288 62.063 25.649 23.554 0.289 45.734-8.67 62.569-25.288 16.329-16.112 25.288-37.281 25.288-59.606 0-25.938-11.849-49.925-32.585-65.892h-109.676c-21.097 16.040-33.091 39.954-33.018 65.892 0.072 22.253 9.104 43.278 25.36 59.245zM883.185 95.6c-7.008-8.381-18.279-13.8-28.828-13.8h-0.072c-43.35 0.072-87.35 0-129.906-0.072-28.322-0.072-57.656-0.072-86.483-0.072-58.884 0-116.828 0-174.556 0.072-56.355 0-113.866 0.072-171.955 0.072-38.726 0-77.669 0-116.756-0.072-12.644 0-21.82 2.746-29.695 8.959-10.476 8.309-11.777 15.028-10.404 23.843 8.020 51.876 14.306 104.401 20.447 155.193 5.852 48.697 11.921 99.055 19.435 148.329 1.879 12.572 3.829 25.36 5.636 37.715 5.274 35.619 10.693 72.395 17.268 108.086 2.529 13.944 7.081 23.265 13.872 28.611 6.936 5.491 18.207 8.237 33.38 8.237 32.224-0.072 65.025 0 96.743 0 16.112 0 32.224 0 48.335 0h238.136c47.107-0.072 95.804-0.145 143.85-0.072 0.072 0 0.145 0 0.217 0 32.296 0 44.867-10.549 49.853-41.761 9.537-60.112 18.785-121.38 27.744-180.625 2.095-13.944 4.263-27.961 6.358-41.905 3.396-22.181 6.575-44.795 9.754-66.687 7.081-49.564 14.378-100.789 23.915-151.075 1.445-8.453-0.578-16.184-6.286-22.976zM850.889 403.602h-496.141c-16.762 0-30.345 13.583-30.345 30.345v0c0 16.762 13.583 30.345 30.345 30.345h496.141c16.762 0 30.345-13.583 30.345-30.345v0c0-16.762-13.583-30.345-30.345-30.345zM884.774 218.064h-598.158c-16.762 0-30.345 13.583-30.345 30.345v0c0 16.762 13.583 30.345 30.345 30.345h598.158c16.762 0 30.345-13.583 30.345-30.345v0c0-16.762-13.583-30.345-30.345-30.345z" />
<glyph unicode="&#xe938;" glyph-name="unidades" d="M927.257 747.729l-387.838 109.965c-3.757 1.156-17.412 5.274-29.117 5.274-11.632 0-25.866-4.263-30.706-5.925l-384.443-111.41c-11.199-3.251-19.291-13.728-20.375-26.010-0.65-2.601-1.012-5.274-1.012-8.020v-532.266c0-13.583 8.453-25.432 20.591-28.9l409.802-116.25c1.879-0.578 3.829-0.795 5.708-0.939 1.012-0.145 2.095-0.145 3.035-0.145 2.312 0 4.696 0.289 7.008 0.939l409.802 116.25c12.138 3.468 20.591 15.317 20.591 28.9 0 0-0.578 432.778-1.951 524.68-0.217 10.549 1.879 34.752-21.097 43.856zM492.818 811.526c0.289 0.072 13.511 3.685 15.895 3.685 2.818 0 9.537-1.517 13.8-2.89 0.289-0.072 317.611-90.096 317.611-90.096l-95.804-23.481-310.169 93.997 58.667 18.785zM303.45 754.954l310.242-94.070-101.656-29.478-317.322 91.974 108.736 31.573zM483.57 101.886l-354.531 100.572v470.492l354.531-100.572v-470.492zM895.178 202.314l-354.531-100.572v467.313l119.863 34.030v-240.809l114.733 33.596v239.653l119.863 34.030v-467.241h0.072z" />
<glyph unicode="&#xe939;" glyph-name="descarga-dcs" d="M181.203 617.318v-103.823c3.035-0.723 8.020-0.723 12.499-0.723 32.44-0.217 53.682 17.701 53.682 55.56 0.289 31.935-17.846 49.275-47.035 50.358-0.939 0-1.879 0.072-2.89 0.072-1.517 0-2.89 0-4.191-0.072-5.636-0.217-9.537-0.795-12.066-1.373zM921.549 685.594c0 0.072 0 0.145 0 0.217-0.072 0.506-0.145 0.939-0.217 1.445 0 0.145-0.072 0.217-0.072 0.361-0.072 0.361-0.145 0.723-0.217 1.084 0 0.072-0.072 0.217-0.072 0.361-0.145 0.434-0.217 0.939-0.361 1.373-0.072 0.072-0.072 0.145-0.072 0.217-0.145 0.434-0.217 0.795-0.361 1.228-0.072 0.072-0.072 0.217-0.145 0.361-0.072 0.434-0.217 0.795-0.361 1.156 0 0.072-0.072 0.145-0.072 0.217-0.217 0.506-0.361 0.939-0.578 1.373 0 0.072-0.072 0.145-0.072 0.217-0.145 0.434-0.289 0.795-0.506 1.156-0.072 0.072-0.072 0.217-0.145 0.289-0.434 0.939-0.939 1.734-1.445 2.601-0.072 0.072-0.072 0.145-0.145 0.217-0.289 0.361-0.506 0.65-0.723 1.012-0.072 0.072-0.072 0.145-0.145 0.217-0.289 0.434-0.578 0.867-0.867 1.228-0.072 0-0.072 0.072-0.072 0.072-0.289 0.361-0.578 0.723-0.867 1.084-0.145 0.072-0.217 0.217-0.289 0.289-0.289 0.289-0.506 0.578-0.795 0.867-0.072 0.145-0.145 0.217-0.217 0.289-0.289 0.289-0.578 0.65-0.939 0.939l-231.634 219.062c-6.286 5.997-14.595 8.959-22.903 8.598-0.361 0-0.795 0-1.156 0h-404.311c-51.37 0-93.13-41.761-93.13-93.13v-149.774c0-2.673 0.361-4.913 0.939-6.719h-57.294v-235.535h56.355c0-0.072 0-0.145 0-0.217v-352.364c0-51.37 41.761-93.13 93.13-93.13h201.433l-49.202 63.074h-152.231c-16.69 0-30.273 13.583-30.273 30.273v352.436h372.883v235.535h-373.822c0.65 1.806 0.939 3.974 0.939 6.719v149.702c0 16.69 13.583 30.273 30.273 30.273h375.339v-187.706c0-17.34 14.089-31.429 31.429-31.429h200.205v-555.458c0-16.69-13.583-30.273-30.273-30.273h-142.694l-49.491-63.074h192.257c51.37 0 93.13 41.761 93.13 93.13v586.815c0 0.072 0 0.072 0 0.145v0.145c0 0.434 0 0.939 0 1.373 0 0.145 0 0.217 0 0.361-0.072 0.434-0.072 0.867-0.145 1.301zM498.236 553.088c-26.371 9.176-43.567 23.77-43.567 46.818 0 0.65 0 1.301 0.072 2.023 0 0.145 0 0.289 0 0.434 0.434 8.67 3.251 16.618 8.092 23.337 0.289 0.361 0.578 0.795 0.867 1.156 0.217 0.289 0.434 0.578 0.65 0.867 0.145 0.217 0.361 0.434 0.578 0.65 0.361 0.434 0.795 0.867 1.156 1.301 0.289 0.289 0.506 0.578 0.795 0.867 10.332 10.549 26.66 17.051 47.613 17.051 17.918 0 31.068-3.757 40.532-8.020l-8.020-28.9c-6.358 3.035-17.629 7.514-33.091 7.514-0.867 0-1.662 0-2.457-0.072-0.289 0-0.506-0.072-0.795-0.072-0.506 0-1.012-0.072-1.517-0.145-0.289 0-0.578-0.072-0.939-0.145-0.434-0.072-0.795-0.072-1.228-0.145-0.361-0.072-0.65-0.145-1.012-0.217s-0.65-0.145-1.012-0.217c-0.361-0.072-0.723-0.145-1.012-0.289-0.289-0.072-0.506-0.145-0.795-0.217-0.361-0.145-0.723-0.217-1.084-0.361-0.217-0.072-0.361-0.145-0.578-0.217-0.361-0.145-0.795-0.289-1.156-0.434-0.145-0.072-0.217-0.145-0.361-0.145-0.434-0.217-0.795-0.361-1.156-0.578 0 0 0 0-0.072 0-0.361-0.217-0.723-0.361-1.084-0.578-1.228-0.723-2.312-1.59-3.179-2.457 0 0 0 0 0-0.072 0 0-0.072-0.072-0.145-0.072-2.457-2.529-3.757-5.708-3.757-9.104 0-10.115 8.959-14.595 29.406-22.398 27.961-10.404 41.183-24.926 41.183-47.324 0-10.91-3.396-21.169-10.476-29.478-0.289-0.289-0.506-0.578-0.795-0.867-0.217-0.289-0.506-0.506-0.723-0.795-0.434-0.506-0.939-0.939-1.445-1.445-0.072-0.072-0.145-0.145-0.217-0.217-10.549-10.043-27.166-16.473-50.214-16.473-18.207 0-36.125 4.985-45.012 9.898l7.297 29.406c9.682-4.985 24.493-9.826 39.665-9.826 9.826 0 16.834 2.384 20.953 6.503 1.445 1.445 2.529 3.035 3.179 4.841 0.289 0.723 0.506 1.517 0.723 2.384 0 0.072 0 0.072 0.072 0.145 0.072 0.289 0.072 0.578 0.145 0.867 0 0.217 0.072 0.434 0.072 0.65s0.072 0.434 0.072 0.65 0.072 0.939 0.072 1.373c0.289 9.971-7.297 15.678-26.299 22.542zM306.557 566.671c0 0.217 0 0.434 0 0.723 0.072 1.012 0.072 2.095 0.145 3.107 0 0.217 0 0.506 0.072 0.723 0.072 0.867 0.145 1.734 0.217 2.673 0 0.217 0.072 0.434 0.072 0.65 0.072 0.939 0.217 1.879 0.361 2.746 0.072 0.361 0.072 0.723 0.145 1.084 0.145 0.867 0.289 1.662 0.434 2.529 0.072 0.434 0.145 0.867 0.217 1.228 0.072 0.506 0.217 1.012 0.289 1.445 0.145 0.795 0.361 1.59 0.506 2.384 0.072 0.361 0.145 0.723 0.217 1.012 0.145 0.578 0.289 1.156 0.434 1.734 0 0.145 0.072 0.289 0.145 0.434 0.65 2.457 1.445 4.913 2.312 7.225 0 0.072 0 0.072 0.072 0.145 0.217 0.578 0.434 1.156 0.65 1.662 0 0.072 0.072 0.145 0.145 0.289 0.578 1.445 1.228 2.89 1.879 4.263 0.145 0.289 0.289 0.578 0.434 0.867s0.289 0.578 0.434 0.867c0.145 0.361 0.361 0.65 0.506 1.012 0.145 0.289 0.289 0.506 0.434 0.795 0.217 0.361 0.361 0.723 0.578 1.084 0.145 0.217 0.289 0.506 0.434 0.723 0.217 0.361 0.434 0.795 0.65 1.156 0.145 0.217 0.217 0.434 0.361 0.65 0.289 0.434 0.578 0.939 0.867 1.373 0.072 0.145 0.145 0.217 0.217 0.361 0.361 0.578 0.723 1.156 1.156 1.734 0.072 0.145 0.145 0.217 0.217 0.361 0.289 0.434 0.65 0.867 0.939 1.301 0.145 0.217 0.289 0.361 0.434 0.506 0.289 0.361 0.506 0.723 0.795 1.084 0.145 0.217 0.289 0.361 0.434 0.578 0.289 0.361 0.506 0.65 0.795 1.012 0.145 0.217 0.289 0.361 0.434 0.578 0.289 0.361 0.578 0.723 0.867 1.012 0.145 0.145 0.289 0.289 0.434 0.506 0.434 0.506 0.867 1.012 1.301 1.445s0.867 0.939 1.301 1.373c15.823 16.040 38.654 24.565 64.158 24.565h0.072c18.568 0 32.729-3.757 39.015-7.008l-7.297-28.467c-7.297 3.035-17.412 5.852-30.056 5.852 0 0 0 0-0.072 0-14.233 0-26.949-4.263-36.053-13.005s-14.667-21.82-14.667-39.521c0-31.79 18.857-51.803 50.864-51.803 0 0 0 0 0.072 0 10.838 0 22.831 2.312 29.839 5.13l5.419-27.961c-6.575-3.251-21.458-7.008-40.749-7.008-27.383 0-48.119 8.598-62.063 22.759-0.867 0.867-1.734 1.806-2.529 2.746s-1.59 1.879-2.384 2.89c-0.795 1.012-1.517 1.951-2.24 2.962-1.806 2.529-3.396 5.202-4.841 8.020-0.578 1.084-1.156 2.24-1.662 3.396-0.289 0.578-0.506 1.156-0.795 1.734-0.506 1.156-0.939 2.312-1.373 3.54-0.217 0.578-0.434 1.228-0.65 1.806-0.434 1.228-0.795 2.457-1.156 3.685-2.312 8.092-3.468 16.834-3.468 26.010 0.217 1.084 0.289 2.168 0.289 3.251zM258.8 629.239c0.795-0.578 1.59-1.228 2.384-1.879 0.072 0 0.072-0.072 0.145-0.072 4.769-3.974 8.959-8.526 12.499-13.872l0.072-0.072c0.578-0.867 1.156-1.734 1.662-2.673 6.358-10.91 10.043-24.493 10.043-41.183 0-27.527-9.104-47.324-22.181-60.401-1.373-1.373-2.746-2.601-4.191-3.829-4.118-3.396-8.815-6.43-13.944-8.959 0.361 0.145 0.65 0.361 1.012 0.506-10.693-5.491-23.481-9.104-38.076-10.765-0.072 0-0.145 0-0.145 0-0.795-0.072-1.59-0.145-2.312-0.289-0.217 0-0.361-0.072-0.578-0.072-1.228-0.145-2.529-0.217-3.757-0.361-0.867-0.072-1.734-0.145-2.529-0.217-0.289 0-0.65-0.072-0.939-0.072-1.156-0.072-2.312-0.145-3.54-0.145-0.217 0-0.361 0-0.578 0-1.012-0.072-2.095-0.072-3.107-0.072-0.289 0-0.65 0-0.939 0-1.228 0-2.457 0-3.685 0-18.568 0-31.718 1.228-40.677 2.312v155.843c13.222 2.095 30.345 3.251 48.552 3.251 30.056 0 49.564-5.491 64.808-16.979zM706.967 181.289c-4.985 10.26-15.389 16.762-26.877 16.762h-39.882v145.656c0 16.473-13.366 29.767-29.767 29.767h-136.191c-16.473 0-29.767-13.366-29.767-29.767v-146.668h-44.217c-11.488 0-21.892-6.575-26.949-16.979-4.913-10.332-3.468-22.687 3.685-31.573l141.177-174.628c5.708-7.008 14.161-11.054 23.12-11.054 0.072 0 0.145 0 0.145 0 9.031 0.072 17.629 4.263 23.192 11.271l138.72 175.495c7.225 9.176 8.526 21.314 3.613 31.718z" />
<glyph unicode="&#xe93a;" glyph-name="entrega" d="M812.38 168.428c-17.34 0-31.429-14.089-31.429-31.429v-68.421c0-16.69-13.583-30.273-30.273-30.273h-576.7c-16.69 0-30.273 13.583-30.273 30.273v570.053h200.205c17.34 0 31.429 14.089 31.429 31.429v187.561h375.339c16.69 0 30.273-13.583 30.273-30.273v-87.712c0-17.34 14.089-31.429 31.429-31.429s31.429 14.089 31.429 31.429v87.784c0 51.37-41.761 93.13-93.13 93.13h-404.311c-0.361 0-0.795 0-1.156 0-8.309 0.361-16.618-2.601-22.903-8.598l-231.634-219.062c-0.361-0.289-0.65-0.65-0.939-0.939-0.072-0.072-0.145-0.145-0.217-0.289-0.289-0.289-0.506-0.578-0.795-0.867-0.072-0.072-0.145-0.217-0.289-0.289-0.289-0.361-0.578-0.723-0.867-1.084 0 0 0-0.072-0.072-0.072-0.289-0.361-0.578-0.795-0.867-1.228-0.072-0.072-0.072-0.145-0.145-0.217-0.217-0.361-0.434-0.65-0.723-1.012-0.072-0.072-0.072-0.145-0.145-0.217-0.506-0.867-1.012-1.662-1.445-2.601-0.072-0.072-0.072-0.217-0.145-0.289-0.217-0.361-0.361-0.723-0.506-1.156 0-0.072-0.072-0.145-0.072-0.217-0.217-0.434-0.361-0.867-0.578-1.373 0-0.072-0.072-0.145-0.072-0.217-0.145-0.361-0.289-0.723-0.361-1.156-0.072-0.145-0.072-0.289-0.145-0.361-0.145-0.434-0.217-0.795-0.361-1.228 0-0.072 0-0.145-0.072-0.217-0.145-0.434-0.217-0.939-0.361-1.373 0-0.145-0.072-0.289-0.072-0.361-0.072-0.361-0.145-0.723-0.217-1.084 0-0.145-0.072-0.217-0.072-0.361-0.072-0.506-0.145-0.939-0.217-1.445 0-0.072 0-0.145 0-0.217-0.072-0.434-0.072-0.867-0.072-1.301 0-0.145 0-0.217 0-0.361 0-0.434 0-0.939 0-1.373 0 0 0-0.072 0-0.072v-0.072c0-0.072 0-0.072 0-0.145v-601.265c0-51.37 41.761-93.13 93.13-93.13h576.7c51.37 0 93.13 41.761 93.13 93.13v68.421c0 17.557-14.089 31.573-31.429 31.573zM952.328 467.11l-217.906 217.906c-14.667 14.667-38.437 14.667-53.104 0s-14.667-38.437 0-53.104l155.265-155.265h-424.975c0 0 0 0 0 0-20.736 0-37.57-16.834-37.57-37.57s16.834-37.57 37.57-37.57l421.94-0.072-154.398-154.398c-14.667-14.667-14.667-38.437 0-53.104 7.37-7.37 16.979-10.982 26.588-10.982s19.219 3.685 26.588 10.982l220.074 220.074c14.595 14.595 14.595 38.437-0.072 53.104z" />
<glyph unicode="&#xe93b;" glyph-name="recogida" d="M812.38 298.623c-17.34 0-31.429-14.089-31.429-31.429v-198.543c0-16.69-13.583-30.273-30.273-30.273h-576.7c-16.69 0-30.273 13.583-30.273 30.273v569.908h200.205c17.34 0 31.429 14.089 31.429 31.429v187.706h375.339c16.69 0 30.273-13.583 30.273-30.273v-215.883c0-17.34 14.089-31.429 31.429-31.429s31.429 14.089 31.429 31.429v215.883c0 51.37-41.761 93.13-93.13 93.13h-404.311c-0.361 0-0.795 0-1.156 0-8.309 0.361-16.618-2.601-22.903-8.598l-231.634-219.062c-0.361-0.289-0.65-0.65-0.939-0.939-0.072-0.072-0.145-0.145-0.217-0.289-0.289-0.289-0.506-0.578-0.795-0.867-0.072-0.072-0.145-0.217-0.289-0.289-0.289-0.361-0.578-0.723-0.867-1.084 0 0 0-0.072-0.072-0.072-0.289-0.361-0.578-0.795-0.867-1.228-0.072-0.072-0.072-0.145-0.145-0.217-0.217-0.361-0.434-0.65-0.723-1.012-0.072-0.072-0.072-0.145-0.145-0.217-0.506-0.867-1.012-1.662-1.445-2.601-0.072-0.072-0.072-0.217-0.145-0.289-0.217-0.361-0.361-0.723-0.506-1.156 0-0.072-0.072-0.145-0.072-0.217-0.217-0.434-0.361-0.867-0.578-1.373 0-0.072-0.072-0.145-0.072-0.217-0.145-0.361-0.289-0.723-0.361-1.156-0.072-0.145-0.072-0.289-0.145-0.361-0.145-0.434-0.217-0.795-0.361-1.228 0-0.072 0-0.145-0.072-0.217-0.145-0.434-0.217-0.939-0.361-1.373 0-0.145-0.072-0.289-0.072-0.361-0.072-0.361-0.145-0.723-0.217-1.084 0-0.145-0.072-0.217-0.072-0.361-0.072-0.506-0.145-0.939-0.217-1.445 0-0.072 0-0.145 0-0.217-0.072-0.434-0.072-0.867-0.072-1.301 0-0.145 0-0.217 0-0.361 0-0.434 0-0.939 0-1.373v-0.145c0-0.072 0-0.072 0-0.145v-601.265c0-51.37 41.761-93.13 93.13-93.13h576.7c51.37 0 93.13 41.761 93.13 93.13v198.543c0 17.557-14.089 31.646-31.429 31.646zM905.654 479.465l-421.94 0.072 154.398 154.398c14.667 14.667 14.667 38.437 0 53.104-7.37 7.37-16.979 10.982-26.588 10.982s-19.219-3.685-26.588-10.982l-220.001-220.001c-14.667-14.667-14.667-38.437 0-53.104l217.906-217.906c14.667-14.667 38.437-14.667 53.104 0s14.667 38.437 0 53.104l-155.265 155.265 424.975-0.072c0 0 0 0 0 0 20.736 0 37.57 16.834 37.57 37.57s-16.834 37.57-37.57 37.57z" />
<glyph unicode="&#xe93c;" glyph-name="servicio" d="M938.745 431.997c-7.514 16.040-21.82 25.071-35.836 33.018-16.256 9.176-23.843 16.618-27.022 26.444-3.685 11.271 1.228 20.086 14.45 38.365 15.534 17.485 18.424 34.825 18.063 46.457-0.434 13.944-5.491 24.637-7.948 29.839l-0.289 0.578c-3.324 7.081-7.442 12.716-11.054 17.774-1.228 1.734-2.384 3.324-3.396 4.841-7.948 11.849-17.846 20.302-29.261 24.999-11.632 4.769-24.637 5.708-38.654 2.673-4.118-0.867-7.731-2.095-10.621-3.107-1.806-0.578-3.757-1.301-4.696-1.445-18.207-3.251-27.6-4.191-35.475 1.156-5.78 3.902-8.309 11.632-12.283 24.926l-0.578 1.951c-0.361 1.228-0.65 4.191-0.867 6.647-0.072 0.723-0.145 1.445-0.217 2.095-1.445 14.522-4.552 31.14-16.545 44.145-11.416 12.427-26.877 17.196-41.833 20.519l-1.373 0.289c-16.618 3.685-32.296 7.225-48.769 1.517-20.447-7.081-32.729-25.721-42.050-42.989-10.187-18.93-18.352-21.964-25.721-22.398-9.898-0.65-19.797 3.468-33.091 13.655-15.173 11.632-29.189 21.242-46.746 21.964-17.918 0.723-32.585-8.092-48.408-18.713-1.228-0.867-2.384-1.662-3.468-2.384-1.59-1.156-3.107-2.168-4.191-2.818-20.664-11.705-31.068-32.224-29.189-57.583 0.578-8.237 2.818-15.534 4.552-21.386 0.361-1.156 0.723-2.312 1.012-3.468 3.107-10.765 5.563-25.577-0.361-35.041s-20.23-13.8-31.14-15.823c-0.795-0.145-1.59-0.289-2.384-0.434-0.578-0.145-1.373-0.289-1.662-0.289-18.713-2.312-35.33-5.202-48.335-17.123-13.15-12.066-17.34-28.972-20.88-46.674-3.251-16.473-5.78-33.958 2.095-50.503 7.442-15.678 21.603-24.926 36.631-33.741 18.496-10.838 24.926-17.701 26.371-28.033 1.156-8.526-2.095-17.051-11.994-31.357l-0.723-1.084c-13.728-19.797-22.759-32.874-22.976-50.214-0.145-17.34 8.598-30.562 21.892-50.431 0.072-0.072 0.072-0.145 0.145-0.217 1.662-2.962 5.419-9.971 13.583-14.667 1.662-0.939 3.468-2.023 5.274-3.179 7.803-4.769 16.69-10.115 27.744-13.077 12.283-3.251 23.409 0.072 30.706 2.312 1.445 0.434 2.818 0.867 3.829 1.084 23.12 5.78 33.163 5.13 42.989-2.746 7.442-5.925 11.054-14.306 13.728-31.862 2.601-17.412 5.347-35.33 17.918-48.624 11.921-12.644 28.25-16.69 48.335-20.591 7.659-1.517 15.895-2.89 24.348-2.89 8.237 0 16.69 1.301 24.854 5.202 16.184 7.659 25.577 22.614 33.018 35.981 8.381 15.028 16.184 23.048 26.155 26.733 6.792 2.529 15.606 3.974 33.741-10.982 11.921-9.826 26.588-20.158 45.229-21.747 22.687-1.951 41.255 9.754 53.321 18.785 12.644 9.465 25.504 20.013 31.501 35.836 5.78 15.389 3.613 30.634-1.445 48.697-5.058 18.135-5.058 28.9 0 38.437 4.624 8.742 12.572 12.572 32.657 15.678 17.485 2.673 35.547 5.491 48.841 17.846 12.788 11.921 16.834 28.105 20.736 48.046 2.962 15.1 5.491 32.729-2.24 49.13zM886.002 393.56c-1.734-8.887-3.179-14.811-4.263-17.629-4.335-1.445-14.739-3.035-18.93-3.685-11.632-1.806-25.215-4.48-38.148-10.693-15.534-7.514-27.455-18.93-35.475-33.958-15.606-29.261-10.621-58.089-4.48-79.836 2.529-8.959 2.818-12.644 2.818-13.944-0.939-1.228-3.757-4.118-12.499-10.693-10.621-7.948-14.595-7.875-14.956-7.803-1.156 0.072-4.841 1.156-14.45 9.104-12.861 10.621-25.071 17.701-37.426 21.675-17.123 5.491-34.463 4.985-51.514-1.373-30.056-11.199-46.096-35.041-55.488-51.948-4.552-8.164-7.008-11.343-8.092-12.427-1.59-0.072-5.419 0.072-14.45 1.806-9.104 1.806-15.173 3.251-18.063 4.335-1.373 4.263-2.962 14.306-3.54 18.352-3.396 22.47-10.115 48.046-34.174 67.193-14.233 11.343-30.634 17.629-48.697 18.568-15.389 0.867-30.273-2.24-42.7-5.347-2.457-0.578-4.696-1.301-6.647-1.879-0.723-0.217-1.734-0.506-2.601-0.795-3.035 1.373-6.719 3.613-10.404 5.852-0.361 0.217-0.723 0.434-1.084 0.65-0.072 0.072-0.072 0.145-0.145 0.217-4.552 6.792-10.043 15.028-12.21 19.291 2.095 3.974 7.297 11.488 12.355 18.785l0.723 1.084c12.933 18.641 25.577 41.616 21.458 71.022-2.384 16.834-9.609 31.79-21.531 44.506-9.898 10.549-21.747 18.135-31.935 24.132-9.32 5.491-12.861 8.237-14.233 9.537-0.072 1.734 0.145 5.852 2.023 15.606 1.951 9.826 3.251 14.161 4.046 16.040 2.023 0.65 6.647 1.734 17.123 3.035 2.24 0.289 4.191 0.65 5.78 1.012 0.434 0.072 0.867 0.217 1.373 0.289 32.224 5.852 55.344 19.724 68.782 41.327s15.678 48.552 6.647 80.053c-0.434 1.373-0.795 2.818-1.228 4.191-1.084 3.54-2.168 7.225-2.312 9.248-0.145 2.384 0.072 3.757 0.217 4.263 0.145 0.072 0.361 0.289 0.795 0.506 3.396 1.951 6.214 3.902 8.742 5.708 0.795 0.578 1.662 1.156 2.457 1.734 8.959 5.997 13.15 8.237 15.1 8.959 2.023-0.939 6.286-3.613 14.884-10.187 15.317-11.705 39.304-27.022 70.661-24.999 17.268 1.084 32.657 7.442 45.951 18.713 9.609 8.237 17.918 19.002 25.432 32.946 6.503 12.066 10.115 15.678 11.271 16.618 3.107 0.145 11.343-1.662 18.063-3.179l1.373-0.289c8.381-1.879 11.632-3.251 12.716-3.902 0.434-1.084 1.373-4.191 2.168-11.777 0.072-0.578 0.145-1.228 0.145-1.806 0.434-4.841 1.012-10.91 2.962-17.34l0.578-1.879c5.058-16.907 11.921-39.954 34.536-55.271 27.527-18.568 55.922-13.583 76.585-9.898 4.985 0.867 9.248 2.312 12.716 3.468 1.734 0.578 3.54 1.156 4.552 1.373 3.035 0.65 4.913 0.578 5.563 0.289 0.723-0.289 2.24-1.662 4.118-4.48 1.517-2.312 3.035-4.407 4.552-6.43 2.384-3.324 4.696-6.503 5.852-8.887l0.361-0.723c3.107-6.503 4.263-8.959-1.879-15.534l-1.156-1.228-1.012-1.373c-7.514-10.332-15.967-22.109-21.458-36.053-7.008-17.846-7.586-35.908-1.734-53.826 9.971-30.417 33.38-46.89 52.67-57.728 8.092-4.624 11.271-7.008 12.499-8.164 0.217-1.59 0.072-5.491-1.734-14.522zM655.597 578.014c-17.701 4.046-35.908 4.335-54.115 0.939-17.34-3.251-33.813-9.754-48.913-19.291-15.317-9.609-28.467-21.82-39.015-36.197-11.127-15.1-18.785-31.935-22.831-49.853-8.381-36.992-1.951-74.851 18.063-106.497s51.514-53.682 88.506-62.063c9.971-2.24 20.013-3.324 29.984-3.324 26.010 0 51.731 7.514 74.562 22.181 31.429 20.158 53.248 51.153 61.413 87.206 8.164 36.342 1.445 73.767-19.002 105.341-20.375 31.212-51.803 53.104-88.651 61.557zM708.556 423.254c-4.841-21.603-17.99-40.243-36.992-52.381-18.857-12.066-40.894-16.112-61.991-11.343-22.47 5.058-41.544 18.352-53.61 37.426-12.066 19.002-15.895 41.833-10.765 64.158 4.696 20.591 18.207 39.232 37.064 51.081 13.583 8.526 29.117 13.077 44.289 13.077 5.563 0 11.127-0.578 16.473-1.806 22.542-5.13 41.761-18.496 54.043-37.57 12.355-18.857 16.329-41.11 11.488-62.641zM811.657 129.775c-17.34 0-31.429-14.089-31.429-31.429v-29.695c0-16.69-13.583-30.273-30.273-30.273h-576.7c-16.69 0-30.273 13.583-30.273 30.273v569.908h200.205c17.34 0 31.429 14.089 31.429 31.429v187.633h375.339c16.69 0 30.273-13.583 30.273-30.273v-40.605c0-17.34 14.089-31.429 31.429-31.429s31.429 14.089 31.429 31.429v40.605c0 51.37-41.761 93.13-93.13 93.13h-404.311c-0.361 0-0.795 0-1.156 0-8.309 0.361-16.618-2.601-22.903-8.598l-231.634-218.99c-0.361-0.289-0.65-0.65-0.939-0.939-0.072-0.072-0.145-0.145-0.217-0.217-0.289-0.289-0.506-0.578-0.795-0.867-0.072-0.072-0.145-0.217-0.289-0.289-0.289-0.361-0.578-0.723-0.867-1.084 0 0 0 0 0-0.072-0.289-0.361-0.578-0.795-0.867-1.228-0.072-0.072-0.072-0.145-0.145-0.217-0.217-0.361-0.506-0.723-0.723-1.012-0.072-0.072-0.072-0.145-0.145-0.217-0.506-0.867-1.012-1.734-1.445-2.601-0.072-0.072-0.072-0.217-0.145-0.289-0.217-0.361-0.361-0.723-0.506-1.156 0-0.072-0.072-0.145-0.072-0.217-0.217-0.434-0.361-0.867-0.578-1.373 0-0.072-0.072-0.145-0.072-0.217-0.145-0.361-0.289-0.723-0.361-1.156-0.072-0.145-0.072-0.289-0.145-0.361-0.145-0.434-0.217-0.795-0.361-1.228 0-0.072 0-0.145-0.072-0.217-0.145-0.434-0.217-0.939-0.361-1.373 0-0.145-0.072-0.289-0.072-0.361-0.072-0.361-0.145-0.723-0.217-1.084 0-0.145-0.072-0.217-0.072-0.361-0.072-0.506-0.145-0.939-0.217-1.445 0-0.072 0-0.145 0-0.217-0.072-0.434-0.072-0.867-0.072-1.301 0-0.145 0-0.217 0-0.361 0-0.434 0-0.939 0-1.373 0 0 0-0.072 0-0.072v-0.072c0-0.072 0-0.072 0-0.145v-601.265c0-51.37 41.761-93.13 93.13-93.13h576.628c51.37 0 93.13 41.761 93.13 93.13v29.695c0 17.485-14.089 31.573-31.429 31.573z" />
</font>
</defs>
</svg>
